<?xml version="1.0" encoding="utf-8"?>
<!-- Generator: Adobe Illustrator 27.5.0, SVG Export Plug-In . SVG Version: 6.00 Build 0)  -->
<svg version="1.1" xmlns="http://www.w3.org/2000/svg" xmlns:xlink="http://www.w3.org/1999/xlink" x="0px" y="0px"
	 viewBox="0 0 500 500" style="enable-background:new 0 0 500 500;" xml:space="preserve">
<g id="BACKGROUND">
	<rect style="fill-rule:evenodd;clip-rule:evenodd;fill:#FFFFFF;" width="500" height="500"/>
</g>
<g id="OBJECTS">
	<path style="fill-rule:evenodd;clip-rule:evenodd;fill:#AAD5F5;" d="M400.038,213.867c-23.234-18.807-24.308-46.406-14.57-67.496
		c13.067-28.304-12.592-69.751-57.069-70.151c-76.847-0.692-236.892,53.416-257.074,105.092
		c-12.98,33.235-9.953,55.42,22.071,79.979c9.09,6.972,14.511,12.142,12.217,24.431c-2.066,11.064-11.484,14.385-17.123,25.228
		c-49.223,94.656,97.134,131.586,201.566,103.841C411.131,382.624,483.259,281.225,400.038,213.867z"/>
	<g>
		<path style="fill-rule:evenodd;clip-rule:evenodd;fill:#000100;" d="M312.927,402.319l-0.152,0.124l-0.822,0.294
			c-29.712,10.634-75.299,9.06-103.217-7.722c-16.849-8.685-32.198-21.348-42.056-37.467c-4.055-6.631-6.926-13.875-8.686-21.438
			c-5.233-22.482-0.657-47.478,8.568-68.336c3.277-7.412,6.038-15.111,7.964-22.988c1.026-4.197,1.82-8.477,2.305-12.789
			c-0.397,0.316-0.801,0.624-1.212,0.925c-3.197,2.348-6.725,4.211-10.473,5.513c-3.429,1.192-6.77,2.62-10.197,3.821
			c-2.061,0.722-4.505,1.538-6.971,2.092c-3.148,0.914-6.399,1.433-9.681,1.55c-3.706,0.133-7.422-0.251-11.034-1.083
			c-7.618-1.756-14.757-5.477-20.839-10.353c-10.068-8.071-17.444-19.26-21.665-31.4c-4.221-12.14-5.378-25.491-2.489-38.067
			c2.589-11.269,8.476-21.82,17.903-28.744c1.443-1.059,2.952-2.019,4.519-2.874c0.022-0.019,0.043-0.038,0.064-0.057
			c2.853-2.55,7.718-4.076,11.356-5.119c1.768-0.506,3.546-0.968,5.321-1.446c1.479-0.397,2.98-0.804,4.428-1.307
			c3.748-1.303,7.668-2.032,11.634-2.174c3.355-0.12,6.721,0.185,10.009,0.86c6.035-1.854,12.069-3.709,18.104-5.562l-0.316-0.096
			l16.049-4.91c8.227-2.517,16.454-5.031,24.683-7.538l1.338-0.409l0.299,0.074c7.018-2.139,14.038-4.272,21.061-6.396
			c4.063-1.23,8.122-2.476,12.204-3.64c1.021-0.291,2.033-0.618,3.101-0.685c6.508-0.409,12.92,0.895,18.791,3.719
			c1.2,0.578,2.372,1.215,3.51,1.905c0.323-0.098,0.649-0.197,0.974-0.295c2.156-0.653,4.312-1.314,6.48-1.932
			c0.732-0.209,1.423-0.406,2.189-0.452c3.833-0.229,7.61,0.536,11.069,2.2c5.128,2.467,9.274,6.744,11.89,11.77
			c2.809,5.397,3.736,11.316,2.668,16.833c1.747-0.972,3.493-1.944,5.239-2.915c3.624-2.016,7.24-4.046,10.896-6.003
			c0.984-0.527,1.933-1.068,3.019-1.372c6.279-1.758,12.785-1.757,19.073-0.035c1.354,0.371,2.684,0.817,3.982,1.331
			c1.863-1.037,3.724-2.08,5.603-3.086c0.673-0.36,1.303-0.695,2.043-0.899c3.648-1.007,7.431-1.008,11.08-0.008
			c7.595,2.081,13.719,8.173,16.597,15.409c3.247,8.163,2.161,17.007-3.168,24.025c-0.216,0.285-0.452,0.536-0.723,0.77
			l-3.371,2.919c0.675,10.001-2.204,19.908-8.607,28.338c-0.249,0.329-0.523,0.62-0.834,0.891l-6.845,5.925
			c0.168,7.877,2.337,15.959,4.42,23.331c1.646,5.834,3.719,11.618,6.667,16.928c8.922,16.061,17.551,32.755,23.261,50.262
			c4.888,14.991,7.612,30.994,4.461,46.647c-4.002,19.879-16.59,34.782-32.671,46.42
			C346.856,388.357,330.369,396.873,312.927,402.319L312.927,402.319z M316.056,379.317c5.56-3.173,10.967-6.697,16.283-10.461
			c15.043-10.649,28.122-24.88,29.984-44.002c1.683-17.264-6.12-34.472-15.235-48.666c-3.983-6.204-8.318-12.166-12.706-18.085
			c-3.743-5.05-7.5-10.1-10.715-15.508c-2.816-4.74-4.991-9.505-6.668-14.352l-3.678,3.756c-0.93,0.949-2.142,1.473-3.389,1.531
			l-16.654,14.418c-0.566,1.093-1.174,2.166-1.826,3.218c-2.966,4.79-6.747,9.005-11.213,12.443
			c-4.199,3.235-10.087,8.623-15.653,11.974c-5.017,3.453-10.65,5.855-16.641,7.102c-10.2,2.124-20.836,0.774-30.407-3.237
			c-1.07-0.446-2.124-0.926-3.161-1.436c-0.803,1.495-1.637,2.994-2.5,4.496c-2.442,4.256-4.643,8.659-6.508,13.198
			c-4.685,11.396-7.261,23.698-5.702,36.025c1.694,13.385,8.043,25.035,17.655,34.398c1.245,1.214,2.536,2.38,3.868,3.498
			c5.513,4.631,11.378,8.497,17.612,11.515c2.158,0.943,4.312,1.833,6.445,2.677c0.206,0.082,0.399,0.185,0.576,0.305
			c5.787,2.121,11.87,3.547,18.263,4.222c9.04,0.956,18.144,0.344,27.054-1.39c6.317-1.229,12.53-3.013,18.592-5.198
			c0.15-0.073,0.301-0.142,0.454-0.208c0.249-0.109,0.504-0.208,0.762-0.298c0.483-0.167,1.042-0.337,1.499-0.565l0.874-0.438
			l0.53-0.046C314.588,379.914,315.323,379.617,316.056,379.317z"/>
		<g>
			<path style="fill-rule:evenodd;clip-rule:evenodd;fill:#000100;" d="M300.456,399.112l-0.396,1.103l-1.288,0.562
				c-12.158,5.297-25.716,7.051-38.892,6.406c-13.991-0.685-28.028-4.069-40.944-9.448c-20.098-8.372-39.209-22.373-50.689-41.145
				c-3.956-6.469-6.747-13.517-8.465-20.896c-5.143-22.094-0.593-46.706,8.459-67.176c8.092-18.297,13.643-39.749,9.62-59.772
				c-2.074-10.322-7.296-21.7-15.844-28.262l-1.713-1.316l0.547-2.089c1.583-6.042,5.017-11.88,10.883-14.586
				c7.485-3.455,15.501-0.317,21.663,4.325c10.098,7.607,18.141,20.753,23.756,31.859c14.999,29.664,8.855,55.518-6.87,82.917
				c-8.694,15.148-14.673,32.711-12.439,50.369c1.747,13.803,8.287,25.831,18.195,35.484c1.278,1.245,2.603,2.439,3.968,3.587
				c30.238,25.4,65.251,23.595,99.366,8.878c0.806-0.286,2.048-0.704,2.775-1.149l6.747-4.133l-1.891,7.684
				c-0.656,2.665-3.7,4.59-5.924,5.892c-2.873,1.68-5.957,3.131-8.961,4.565C310.129,393.723,301.877,397.512,300.456,399.112z"/>
			<path style="fill-rule:evenodd;clip-rule:evenodd;fill:#AA7136;" d="M163.998,177.904c12.885,9.892,30.181,40.002,7.218,91.931
				c-11.302,25.555-15.985,59.235-0.194,85.059c24.227,39.615,86.239,60.422,126.451,42.901
				c1.471-4.102,25.277-11.803,26.375-16.258c-21.682,9.813-39.396,11.21-48.508,11.757
				c-44.268,2.661-109.549-40.705-67.877-113.317c14.016-24.422,21.993-49.761,6.789-79.831
				C191.536,155.219,169.133,158.31,163.998,177.904z"/>
			<path style="fill-rule:evenodd;clip-rule:evenodd;fill:#000100;" d="M187.774,226.545c-0.027-0.631,0.462-1.166,1.094-1.193
				c0.632-0.027,1.166,0.463,1.194,1.095c0.514,11.32-3.585,22.371-8.269,34.995c-4.3,11.589-9.098,24.521-11.188,40.08
				c-1.209,8.997-1.215,17.81,0.055,26.194c1.232,8.143,3.667,15.87,7.37,22.958c6.492,12.427,17.74,23.268,30.768,31.471
				c14.089,8.873,30.229,14.644,44.672,15.998c1.676,0.157,8.148,0.52,14.734,0.421c3.873-0.057,7.782-0.277,10.752-0.798
				c0.625-0.109,1.219,0.309,1.328,0.934c0.108,0.624-0.309,1.219-0.934,1.327c-3.069,0.538-7.113,0.767-11.12,0.826
				c-6.675,0.1-13.26-0.271-14.967-0.431c-14.798-1.387-31.304-7.282-45.686-16.338c-13.344-8.403-24.885-19.542-31.575-32.352
				c-3.83-7.331-6.345-15.3-7.613-23.676c-1.299-8.588-1.292-17.616-0.054-26.841c2.128-15.839,6.968-28.884,11.304-40.573
				C184.24,248.243,188.267,237.389,187.774,226.545z"/>
			<path style="fill-rule:evenodd;clip-rule:evenodd;fill:#000100;" d="M206.6,264.897c0.272-0.571,0.958-0.815,1.529-0.543
				c0.572,0.274,0.815,0.959,0.543,1.53c-12.541,26.336-21.119,49.415-17.765,69.272c3.336,19.75,18.575,36.489,53.663,50.373
				c0.589,0.233,0.878,0.9,0.646,1.49c-0.233,0.589-0.9,0.879-1.49,0.646c-35.96-14.23-51.607-31.571-55.081-52.133
				C185.191,315.075,193.881,291.607,206.6,264.897z"/>
		</g>
		<g>
			<path style="fill-rule:evenodd;clip-rule:evenodd;fill:#000100;" d="M276.079,99.755c3.523-0.218,6.983,0.491,10.162,2.021
				c4.769,2.294,8.624,6.289,11.056,10.962c4.888,9.39,3.712,20.506-4.511,27.669c-0.184,0.16-0.356,0.28-0.571,0.398
				l-64.299,35.292c-0.963,0.529-2.03,0.55-3.014,0.061c-0.984-0.49-1.61-1.354-1.769-2.441l-7.71-52.727
				c-0.234-1.6,0.717-3.106,2.263-3.58c16.709-5.132,33.416-10.284,50.146-15.346c2.146-0.649,4.296-1.309,6.453-1.924
				C274.878,99.97,275.464,99.785,276.079,99.755z"/>
			<path style="fill-rule:evenodd;clip-rule:evenodd;fill:#585857;" d="M218.641,120.519c57.123-17.543,57.605-17.515,57.605-17.515
				c16.679-1.063,28.542,22.636,14.406,34.95l-64.3,35.291L218.641,120.519z"/>
			<path style="fill-rule:evenodd;clip-rule:evenodd;fill:#000100;" d="M134.282,130.121c31.645-9.719,63.285-19.477,94.971-29.063
				c4.049-1.225,8.107-2.471,12.176-3.631c0.795-0.228,1.826-0.568,2.711-0.618c6.203-0.395,12.285,0.851,17.879,3.541
				c8.466,4.073,15.308,11.193,19.623,19.485c8.635,16.594,6.677,36.194-7.873,48.871c-0.187,0.161-0.357,0.281-0.571,0.399
				L151.407,235.95c-0.963,0.529-2.03,0.551-3.014,0.061c-0.984-0.489-1.61-1.353-1.769-2.441l-14.605-99.87
				C131.785,132.1,132.736,130.595,134.282,130.121z"/>
			<path style="fill-rule:evenodd;clip-rule:evenodd;fill:#636362;" d="M135.237,133.23
				c108.195-33.229,109.109-33.175,109.109-33.175c31.588-2.013,54.063,42.874,27.284,66.199l-121.79,66.845L135.237,133.23z"/>
			<path style="fill-rule:evenodd;clip-rule:evenodd;fill:#585857;" d="M170.422,122.438c12.545-3.843,22.955-7.023,31.603-9.659
				l2.339,0.031l27.616,36.56l50.623-17.481c1.119,5.091,1.259,10.364,0.217,15.47l-90.336,62.336l-4.499,2.47l-3.457-47.236
				c9.69-3.028,33.197-11.798,19.84-26.452c-6.367-6.985-16.758-14.237-33.064-15.944
				C171.004,122.502,170.715,122.469,170.422,122.438z"/>
			<path style="fill-rule:evenodd;clip-rule:evenodd;fill:#000100;" d="M181.877,115.325c8.225-2.517,16.452-5.03,24.68-7.537
				l0.855-0.261l0.868,0.213c33.771,8.297,42.184,43.708,39.8,74.134l-0.138,1.752l-30.823,16.917l1.161-6.664
				c2.971-17.047,3.781-37.278-6.342-52.272c-7.086-10.496-18.167-16.487-30.046-20.057l-10.271-3.087L181.877,115.325z"/>
			<path style="fill-rule:evenodd;clip-rule:evenodd;fill:#AA7136;" d="M182.829,118.435c9.559-2.924,17.719-5.416,24.677-7.536
				c32.976,8.103,39.454,43.649,37.332,70.722l-23.353,12.817C228.38,154.858,218.033,129.017,182.829,118.435z"/>
			<path style="fill-rule:evenodd;clip-rule:evenodd;fill:#000100;" d="M247.217,171.316c-0.479,0.185-0.971,0.336-1.476,0.451
				c-6.698,1.522-12.896-3.403-16.066-8.877c-2.144-3.704-3.317-8.105-3.062-12.393c0.238-3.993,1.759-7.981,5.008-10.477
				c1.222-0.939,2.613-1.601,4.116-1.942c0.45-0.102,0.898-0.175,1.342-0.221c5.384-2.398,10.785-4.768,16.216-7.055
				c3.288-1.386,6.612-2.768,9.964-3.999c1.311-0.48,2.844-1.056,4.217-1.321c0.198-0.038,0.397-0.065,0.592-0.08
				c2.795-1.185,5.794-1.427,8.753-0.556c4.652,1.37,8.275,5.207,10.259,9.527c3.431,7.471,2.039,16.368-5.776,20.346
				l-32.012,16.295C248.619,171.355,247.923,171.456,247.217,171.316z"/>
			<path style="fill-rule:evenodd;clip-rule:evenodd;fill:#C19363;" d="M235.628,142.064c32.636-14.597,33.058-13.367,33.058-13.367
				c12.836-6.412,24.158,16.497,11.139,23.123l-32.011,16.295L235.628,142.064z"/>
			<path style="fill-rule:evenodd;clip-rule:evenodd;fill:#000100;" d="M231.137,139.389c1.312-1.008,2.808-1.719,4.421-2.086
				c7.047-1.604,13.586,3.473,16.932,9.253c4.124,7.12,5.063,18.359-2.148,23.9c-1.313,1.009-2.81,1.72-4.425,2.087
				c-7.045,1.602-13.584-3.474-16.93-9.253C224.863,156.17,223.924,144.931,231.137,139.389z"/>
			<path style="fill-rule:evenodd;clip-rule:evenodd;fill:#C19363;" d="M233.602,142.599c-4.556,3.5-5.054,11.855-1.112,18.662
				c3.941,6.806,10.83,9.485,15.385,5.985c4.555-3.501,5.054-11.856,1.112-18.662C245.047,141.778,238.159,139.098,233.602,142.599z
				"/>
			<path style="fill-rule:evenodd;clip-rule:evenodd;fill:#000100;" d="M126.463,127.185c3.579-1.244,7.31-1.938,11.096-2.073
				c11.193-0.401,22.024,4.113,30.659,11.034c9.799,7.855,16.972,18.758,21.079,30.57c4.107,11.813,5.246,24.814,2.434,37.053
				c-2.489,10.834-8.13,21.014-17.199,27.674c-3.054,2.243-6.411,4.014-9.989,5.258c-3.42,1.189-6.771,2.621-10.201,3.822
				c-3.646,1.278-9.021,3.025-12.887,2.572c-21.719-2.55-33.437-27.785-39.745-45.925c-6.508-18.717-12.741-47.274,4.271-62.479
				C110.289,130.839,120.812,129.15,126.463,127.185z"/>
			<path style="fill-rule:evenodd;clip-rule:evenodd;fill:#636362;" d="M127.531,130.257c-4.438,1.543-15.966,3.803-19.385,6.859
				c-13.91,12.432-11.333,36.073-3.366,58.985c7.667,22.049,19.155,41.663,37.053,43.763c5.273,0.619,16.522-4.457,21.64-6.236
				c22.49-7.82,32.676-37.3,22.751-65.844C176.299,139.239,150.021,122.438,127.531,130.257z"/>
			<path style="fill-rule:evenodd;clip-rule:evenodd;fill:#000100;" d="M111.248,132.475c3.579-1.244,7.311-1.938,11.097-2.073
				c11.193-0.4,22.024,4.113,30.658,11.035c9.798,7.854,16.971,18.757,21.079,30.569c4.107,11.812,5.245,24.814,2.434,37.053
				c-2.49,10.833-8.131,21.014-17.2,27.674c-3.053,2.242-6.41,4.014-9.989,5.258c-3.578,1.244-7.31,1.938-11.095,2.073
				c-11.193,0.401-22.024-4.112-30.659-11.035c-9.798-7.854-16.971-18.757-21.079-30.569c-4.107-11.812-5.245-24.814-2.433-37.053
				c2.489-10.833,8.13-21.014,17.2-27.674C104.312,135.491,107.669,133.72,111.248,132.475z"/>
			<path style="fill-rule:evenodd;clip-rule:evenodd;fill:#585857;" d="M112.316,135.548c-22.49,7.819-32.676,37.299-22.751,65.844
				c9.925,28.545,36.203,45.347,58.693,37.527c22.49-7.82,32.676-37.3,22.751-65.845
				C161.084,144.529,134.807,127.728,112.316,135.548z"/>
			<path style="fill-rule:evenodd;clip-rule:evenodd;fill:#000100;" d="M172.407,220.742c-4.55,9.277-15.26,15.344-25.564,14.297
				c-9.826-0.999-18.991-5.39-26.458-11.766c-8.198-7-14.25-16.257-17.781-26.415c-6.605-18.994-4.211-41.987,10.367-56.754
				c6.832-6.92,20.282-9.848,29.212-5.772c15.387,7.022,26.499,21.984,31.902,37.683c2.838,8.246,4.248,17.009,3.904,25.733
				C177.677,205.671,175.906,213.605,172.407,220.742z"/>
			<path style="fill-rule:evenodd;clip-rule:evenodd;fill:#FFFFFF;" d="M169.486,219.31c6.268-12.78,7.233-29.647,1.524-46.236
				c-5.806-16.87-17.21-29.864-30.177-35.783c-7.684-3.507-19.678-0.847-25.547,5.099c-12.233,12.391-16.612,33.261-9.61,53.4
				c7.114,20.462,23.911,34.226,41.497,36.013C156.146,232.716,165.547,227.342,169.486,219.31z"/>
			<path style="fill-rule:evenodd;clip-rule:evenodd;fill:#000100;" d="M369.221,158.719c0.72,9.479-1.967,18.865-8.059,26.886
				c-0.143,0.189-0.281,0.337-0.462,0.492l-103.705,89.781c-0.854,0.74-1.933,0.979-3.02,0.668
				c-1.087-0.308-1.877-1.078-2.214-2.157l-29.718-95.095c-0.463-1.482,0.158-3.045,1.512-3.805
				c28.168-15.82,56.325-31.677,84.56-47.38c3.607-2.006,7.218-4.034,10.858-5.982c0.725-0.388,1.635-0.925,2.48-1.157
				c5.824-1.637,11.842-1.629,17.673-0.031c1.333,0.364,2.637,0.806,3.91,1.32c0.495-0.275,0.988-0.55,1.483-0.825
				c1.911-1.063,3.825-2.138,5.754-3.17c0.545-0.292,1.072-0.592,1.664-0.747c3.33-0.928,6.773-0.92,10.105-0.008
				c7.038,1.928,12.711,7.619,15.376,14.316c3.011,7.571,2.025,15.717-2.924,22.235c-0.144,0.189-0.283,0.337-0.463,0.492
				L369.221,158.719z"/>
			<path style="fill-rule:evenodd;clip-rule:evenodd;fill:#585857;" d="M301.464,149.287c50.853-28.56,51.311-28.628,51.311-28.628
				c15.497-4.354,30.438,16.542,19.131,31.434l-54.752,47.399L301.464,149.287z"/>
			<path style="fill-rule:evenodd;clip-rule:evenodd;fill:#000100;" d="M321.245,120.202c5.962-1.674,12.123-1.667,18.093-0.032
				c12.688,3.475,22.915,13.793,27.716,25.858c5.43,13.652,3.67,28.303-5.257,40.058c-0.18,0.235-0.352,0.42-0.575,0.613
				l-103.706,89.78c-1.064,0.921-2.404,1.218-3.758,0.833c-1.352-0.385-2.336-1.345-2.755-2.686l-29.718-95.095
				c-0.576-1.845,0.196-3.791,1.881-4.736c28.17-15.821,56.327-31.678,84.563-47.381c3.61-2.009,7.227-4.039,10.869-5.989
				C319.409,120.991,320.325,120.453,321.245,120.202z"/>
			<path style="fill-rule:evenodd;clip-rule:evenodd;fill:#636362;" d="M225.148,178.324c96.319-54.095,97.187-54.223,97.187-54.223
				c29.354-8.249,57.654,31.331,36.236,59.538l-103.706,89.781L225.148,178.324z"/>
			<path style="fill-rule:evenodd;clip-rule:evenodd;fill:#585857;" d="M252.87,162.767c8.88-4.98,16.625-9.317,23.38-13.097
				c2.189,0.31,4.659,0.723,7.46,1.256c16.335,3.112,29.948,19.836,29.948,19.836l26.448,1.556L365.6,155.86
				c1.475,9.176-0.38,19.024-7.027,27.778l-87.7,75.923c4.43-16.921,15.171-43.681,15.171-43.681s12.834-8.167,14.002-10.501
				c1.167-2.335,2.916-5.252-6.807-20.032C284.776,172.485,263.502,164.191,252.87,162.767z"/>
			<path style="fill-rule:evenodd;clip-rule:evenodd;fill:#000100;" d="M254.072,156.112c5.706-3.271,11.483-6.116,17.41-8.948
				c2.25-1.075,4.499-2.153,6.728-3.271c0.502-0.251,0.986-0.359,1.548-0.343c14.681,0.405,29.048,4.436,39.106,15.719
				c11.89,13.338,14.094,32.717,13.157,49.855c-0.046,0.82-0.351,1.511-0.925,2.098l-19.089,19.493
				c-1.02,1.041-2.54,1.282-3.831,0.606c-1.292-0.675-1.962-2.062-1.688-3.494c2.842-14.848,1.498-31.201-7.438-43.849
				c-5.109-7.232-12.112-13.314-20.027-17.295c-6.961-3.501-15.096-5.574-22.904-4.527c-1.557,0.21-3.009-0.691-3.513-2.179
				C252.104,158.49,252.709,156.894,254.072,156.112z"/>
			<path style="fill-rule:evenodd;clip-rule:evenodd;fill:#AA7136;" d="M255.689,158.934c9.399-5.388,16.134-8.204,23.979-12.133
				c37.775,1.043,51.069,26.236,49.107,62.146l-19.09,19.493c3.463-18.099,0.4-34.482-7.976-46.337
				C290.522,166.268,271.643,156.794,255.689,158.934z"/>
			<path style="fill-rule:evenodd;clip-rule:evenodd;fill:#000100;" d="M213.026,172.052c5.283-4.069,11.354-6.85,17.882-8.21
				c9.842-2.049,20.091-0.736,29.322,3.132c10.042,4.207,18.631,11.276,25.041,20.042c6.87,9.395,11.12,20.574,11.906,32.206
				c0.729,10.78-1.57,21.743-7.288,30.977c-2.852,4.605-6.478,8.649-10.771,11.956c-5.385,4.147-14.621,12.764-20.973,14.329
				c-3.798,0.936-7.7,1.162-11.579,0.657c-16.6-2.158-30.343-17.164-39.693-29.951c-12.189-16.667-24.429-40.926-11.999-60.768
				c1.92-3.065,6.457-6.281,9.425-8.355c1.661-1.162,3.345-2.287,5.025-3.421C210.563,173.811,211.842,172.964,213.026,172.052z"/>
			<path style="fill-rule:evenodd;clip-rule:evenodd;fill:#636362;" d="M215.01,174.628c-3.986,3.07-14.79,9.386-17.38,13.521
				c-10.537,16.819-1.902,38.292,11.868,57.12c13.251,18.12,29.65,32.548,47.869,28.057c5.367-1.324,15.171-10.208,19.768-13.748
				c20.198-15.557,22.666-47.184,5.511-70.642C265.49,165.479,235.209,159.073,215.01,174.628z"/>
			<path style="fill-rule:evenodd;clip-rule:evenodd;fill:#000100;" d="M199.361,182.576c5.284-4.069,11.354-6.851,17.883-8.21
				c9.842-2.049,20.091-0.735,29.323,3.132c10.04,4.207,18.628,11.276,25.04,20.041c6.87,9.395,11.121,20.574,11.907,32.206
				c0.73,10.78-1.57,21.744-7.288,30.977c-2.853,4.606-6.479,8.649-10.772,11.956c-5.284,4.068-11.354,6.85-17.882,8.209
				c-9.843,2.049-20.091,0.736-29.325-3.132c-10.04-4.207-18.629-11.275-25.039-20.042c-6.871-9.395-11.121-20.574-11.907-32.207
				c-0.729-10.78,1.571-21.743,7.288-30.977C191.441,189.926,195.068,185.881,199.361,182.576z"/>
			<path style="fill-rule:evenodd;clip-rule:evenodd;fill:#585857;" d="M201.345,185.152c-20.199,15.556-22.667,47.184-5.511,70.643
				c17.154,23.457,47.437,29.863,67.636,14.308c20.198-15.558,22.665-47.185,5.511-70.643
				C251.826,176.002,221.544,169.596,201.345,185.152z"/>
			<path style="fill-rule:evenodd;clip-rule:evenodd;fill:#000100;" d="M282.743,243.597c-2.438,13.244-9.779,20.712-22.89,23.676
				c-19.971,4.516-40.251-4.396-52.177-20.703c-11.436-15.638-14.234-36.605-6.107-54.356c0.538-1.175,1.122-2.329,1.751-3.458
				c5.52-9.911,15.555-16.074,27.009-15.212c16.628,1.251,31.542,10.686,41.276,23.996
				C281.217,210.682,285.71,227.476,282.743,243.597z"/>
			<path style="fill-rule:evenodd;clip-rule:evenodd;fill:#FFFFFF;" d="M279.545,243.008c2.61-14.18-0.794-30.189-10.564-43.548
				c-10.025-13.71-24.535-21.592-38.894-22.672c-9.921-0.747-18.847,4.437-23.925,13.552c-9.023,16.2-8.02,37.684,4.14,54.311
				c11.97,16.368,31.366,23.399,48.833,19.451C271.072,261.401,277.361,254.872,279.545,243.008z"/>
			<path style="fill-rule:evenodd;clip-rule:evenodd;fill:#FFFFFF;" d="M216.501,225.487c0.673-33.824,39.863-37.379,48.064-8.558
				c2.283,8.023,0.679,18.612-5.249,25.65C250.673,252.842,215.885,256.427,216.501,225.487z"/>
			<path style="fill-rule:evenodd;clip-rule:evenodd;fill:#000100;" d="M244.586,242.773c9.395,0,17.056-7.661,17.056-17.056
				c0-9.394-7.661-17.055-17.056-17.055c-9.394,0-17.056,7.661-17.056,17.055C227.53,235.112,235.191,242.773,244.586,242.773z"/>
			<path style="fill-rule:evenodd;clip-rule:evenodd;fill:#FFFFFF;" d="M232.978,221.454c3.262,0,5.922-2.661,5.922-5.922
				c0-3.262-2.66-5.923-5.922-5.923c-3.262,0-5.922,2.661-5.922,5.923C227.056,218.793,229.716,221.454,232.978,221.454z"/>
			<path style="fill-rule:evenodd;clip-rule:evenodd;fill:#FFFFFF;" d="M114.19,188.657c0.673-33.824,39.863-37.38,48.065-8.558
				c2.283,8.023,0.678,18.612-5.249,25.65C148.362,216.013,113.574,219.597,114.19,188.657z"/>
			<path style="fill-rule:evenodd;clip-rule:evenodd;fill:#000100;" d="M142.275,205.944c9.394,0,17.056-7.662,17.056-17.056
				s-7.662-17.055-17.056-17.055c-9.395,0-17.056,7.661-17.056,17.055S132.88,205.944,142.275,205.944z"/>
			<path style="fill-rule:evenodd;clip-rule:evenodd;fill:#FFFFFF;" d="M130.667,184.623c3.262,0,5.922-2.66,5.922-5.921
				c0-3.262-2.66-5.922-5.922-5.922c-3.262,0-5.922,2.66-5.922,5.922C124.745,181.963,127.405,184.623,130.667,184.623z"/>
			<path style="fill-rule:evenodd;clip-rule:evenodd;fill:#000100;" d="M237.85,149.932c-1.845,1.419-2.047,4.802-0.451,7.557
				c1.596,2.756,4.385,3.841,6.23,2.424c1.845-1.418,2.046-4.801,0.45-7.557C242.483,149.6,239.694,148.515,237.85,149.932z"/>
			<path style="fill-rule:evenodd;clip-rule:evenodd;fill:#000100;" d="M186.548,116.757c-0.371-0.083-0.604-0.45-0.521-0.82
				c0.084-0.37,0.451-0.603,0.822-0.52c8.506,1.921,18.037,5.988,25.633,12.97c6.043,5.553,10.86,12.945,12.973,22.56
				c1.875,8.534,2.304,11.443,2.382,13.493c0.075,1.966-0.148,3.293-0.801,1.23c-0.858-2.711-1.456-7.743-2.926-14.432
				c-2.045-9.307-6.709-16.462-12.558-21.838C204.151,122.598,194.852,118.632,186.548,116.757z"/>
			<path style="fill-rule:evenodd;clip-rule:evenodd;fill:#000100;" d="M259.388,156.311c-0.376,0.047-0.72-0.219-0.767-0.595
				c-0.048-0.376,0.219-0.72,0.595-0.767c1.792-0.23,3.663-0.314,5.588-0.251c10.173,0.339,21.938,4.815,31.726,13.675
				c9.771,8.846,17.579,22.063,19.873,39.896c0.57,4.432,0.798,9.148,0.631,14.152c-0.011,0.378-0.328,0.676-0.708,0.664
				c-0.378-0.012-0.676-0.329-0.664-0.708c0.164-4.933-0.061-9.577-0.621-13.936c-2.247-17.469-9.881-30.403-19.432-39.049
				c-9.534-8.632-20.972-12.991-30.849-13.32C262.904,156.009,261.106,156.09,259.388,156.311z"/>
			<path style="fill-rule:evenodd;clip-rule:evenodd;fill:#000100;" d="M247.732,143.786c-0.35,0.145-0.752-0.022-0.896-0.374
				c-0.145-0.351,0.023-0.752,0.374-0.896l33.384-13.775c0.352-0.145,0.752,0.022,0.897,0.374c0.143,0.352-0.024,0.752-0.375,0.897
				L247.732,143.786z"/>
			<path style="fill-rule:evenodd;clip-rule:evenodd;fill:#000100;" d="M253.612,150.895c-0.339,0.169-0.75,0.032-0.92-0.307
				c-0.17-0.339-0.032-0.751,0.307-0.92c2.041-1.021,31.849-15.36,31.935-15.401c0.341-0.165,0.752-0.021,0.917,0.32
				c0.165,0.342,0.022,0.753-0.32,0.919C285.443,135.546,255.461,149.971,253.612,150.895z"/>
			<path style="fill-rule:evenodd;clip-rule:evenodd;fill:#D9D9D9;" d="M224.836,190.893c0.225-0.167,0.452-0.33,0.681-0.487
				c0.923-0.638,1.882-1.21,2.873-1.712c1.974-1,4.073-1.723,6.263-2.145c0.555-0.107,1.115-0.194,1.681-0.262
				c1.557-0.187,3.152-0.223,4.774-0.101c0.279,0.021,0.558,0.045,0.837,0.071c0.337,0.031,0.674,0.066,1.01,0.105
				c7.546,0.872,15.076,3.611,21.924,8.073c-4.669-5.122-10.022-9.192-15.72-12.138c-0.355-0.184-0.712-0.363-1.069-0.538
				c-0.851-0.416-1.708-0.808-2.572-1.174c-0.195-0.083-0.391-0.164-0.586-0.244c-4.836-1.982-9.849-3.18-14.843-3.556
				c-0.698-0.053-1.391-0.075-2.079-0.07c-1.566,0.013-3.102,0.174-4.595,0.476c-0.48,0.098-0.956,0.209-1.426,0.335
				c-0.288,0.077-0.573,0.159-0.857,0.246c-0.338,0.105-0.674,0.216-1.006,0.335c-5.178,1.852-9.675,5.486-12.924,10.504
				c-0.362,0.558-0.708,1.134-1.038,1.726c-0.255,0.458-0.502,0.921-0.742,1.388c-2.14,4.175-3.636,8.67-4.468,13.32
				c-0.238,1.325-0.421,2.664-0.551,4.012c-1.158,12.067,2.041,24.845,9.901,35.592c2.126,2.909,4.489,5.523,7.032,7.833
				c0.866,0.786,1.753,1.537,2.658,2.251c1.407,1.111,2.859,2.136,4.349,3.073c-1.051-1.191-2.059-2.445-3.019-3.757
				c-0.25-0.342-0.496-0.688-0.737-1.033c-0.816-1.175-1.579-2.372-2.288-3.588c-7.938-13.624-9.117-29.658-4.077-43.252
				c0.491-1.322,1.04-2.622,1.648-3.895c0.385-0.807,0.794-1.603,1.227-2.387c0.029-0.052,0.058-0.104,0.087-0.157
				c0.037-0.067,0.074-0.133,0.111-0.199c1.23-2.171,2.681-4.116,4.312-5.805c0.017-0.018,0.034-0.035,0.051-0.053
				C222.652,192.656,223.715,191.724,224.836,190.893z"/>
			<path style="fill-rule:evenodd;clip-rule:evenodd;fill:#D9D9D9;" d="M165.64,161.148c-6.263-11.025-15.096-19.425-24.808-23.857
				c-1.057-0.482-2.195-0.848-3.388-1.105c-0.594-0.128-1.201-0.229-1.818-0.302c-1.078-0.13-2.188-0.181-3.311-0.157
				c-6.328,0.138-13.072,2.653-17.031,6.663c-1.685,1.707-3.222,3.575-4.6,5.58c6.273-3.338,14.801-4.318,20.748-1.604
				c0.884,0.403,1.761,0.84,2.63,1.309c1.218,0.657,2.42,1.377,3.603,2.158c24.282,16.033,35.299,50.29,23.001,77.323
				c-0.188,0.414-0.381,0.823-0.58,1.229c-0.138,0.282-0.282,0.559-0.434,0.833c2.476-1.309,4.725-3.049,6.579-5.116
				c1.299-1.45,2.404-3.059,3.253-4.792c2.108-4.298,3.616-9.059,4.473-14.117c0.286-1.692,0.499-3.417,0.638-5.169
				c0.678-8.581-0.441-17.807-3.588-26.95c-1.053-3.059-2.291-5.992-3.688-8.777C166.784,163.225,166.223,162.175,165.64,161.148z"
				/>
			<path style="fill-rule:evenodd;clip-rule:evenodd;fill:#000100;" d="M123.194,132.269c0.372-0.077,0.736,0.161,0.813,0.533
				c0.077,0.372-0.162,0.735-0.533,0.813c-9.454,1.984-17.321,7.849-22.92,15.589c-6.043,8.357-9.439,18.889-9.339,29.093
				c0.084,8.521,2.332,17.454,6.154,25.763c3.904,8.487,9.447,16.316,16.001,22.383c7.067,6.541,15.304,11.03,23.916,12.075
				c7.624,0.924,15.558-0.854,23.248-6.307c0.309-0.22,0.738-0.148,0.957,0.162c0.221,0.309,0.148,0.738-0.161,0.958
				c-7.997,5.67-16.258,7.518-24.206,6.554c-8.913-1.08-17.414-5.703-24.685-12.435c-6.689-6.191-12.342-14.172-16.32-22.819
				c-3.898-8.476-6.192-17.602-6.277-26.323c-0.103-10.496,3.387-21.324,9.598-29.912
				C105.227,140.395,113.378,134.329,123.194,132.269z"/>
			<path style="fill-rule:evenodd;clip-rule:evenodd;fill:#000100;" d="M210.632,177.274c0.329-0.191,0.749-0.079,0.939,0.25
				c0.19,0.329,0.078,0.749-0.25,0.939c-6.708,3.908-12.143,9.936-15.921,16.949c-3.921,7.276-6.055,15.604-5.976,23.724
				c0.101,10.318,3.81,20.923,9.906,30.141c5.089,7.694,11.837,14.415,19.537,19.185c7.682,4.761,16.309,7.581,25.177,7.495
				c7.621-0.076,15.432-2.302,22.983-7.296c0.316-0.21,0.743-0.123,0.952,0.193c0.21,0.317,0.124,0.744-0.192,0.953
				c-7.785,5.149-15.851,7.445-23.732,7.522c-9.14,0.09-18.018-2.81-25.909-7.699c-7.874-4.878-14.768-11.741-19.961-19.594
				c-6.236-9.428-10.029-20.296-10.133-30.889c-0.082-8.353,2.111-16.913,6.137-24.387
				C198.082,187.534,203.696,181.315,210.632,177.274z"/>
			<path style="fill-rule:evenodd;clip-rule:evenodd;fill:#000100;" d="M377.102,131.245c0.236-0.297,0.669-0.346,0.966-0.11
				c0.298,0.236,0.347,0.669,0.11,0.966c-5.346,6.733-14.21,11.066-14.235,11.079c-0.34,0.168-0.753,0.028-0.921-0.313
				c-0.168-0.34-0.029-0.752,0.312-0.92C363.358,141.936,371.947,137.737,377.102,131.245z"/>
			<path style="fill-rule:evenodd;clip-rule:evenodd;fill:#000100;" d="M280.792,122.609c-0.365,0.107-0.747-0.101-0.855-0.465
				c-0.106-0.365,0.103-0.747,0.466-0.854c11.631-3.432,14.792-8.082,14.801-8.095c0.216-0.312,0.645-0.388,0.956-0.17
				c0.31,0.217,0.386,0.645,0.169,0.955C296.318,113.995,292.887,119.04,280.792,122.609z"/>
			<path style="fill-rule:evenodd;clip-rule:evenodd;fill:#FFFFFF;" d="M143.701,130.631c14.189,3.181,27.637,14.326,35.625,30.418
				c0.557,1.122,1.087,2.267,1.589,3.436c0.651,1.516,1.255,3.07,1.809,4.661c1.365,3.927,2.35,7.871,2.975,11.774
				c0.606,3.787,0.873,7.536,0.819,11.193c-0.037,2.463-0.218,4.885-0.54,7.248c0.297-0.634,0.607-1.262,0.933-1.883
				c0.523-0.999,1.083-1.983,1.68-2.948c0.441-0.712,0.901-1.413,1.38-2.098c0.333-7.922-0.852-16.325-3.746-24.648
				c-0.222-0.639-0.452-1.272-0.69-1.898c-0.145-0.38-0.292-0.759-0.443-1.135c-0.395-0.988-0.81-1.962-1.245-2.918
				c-7.735-17.038-21.498-28.954-36.111-32.439c-2.552-0.609-5.13-0.96-7.707-1.038c-4.209-0.126-8.416,0.483-12.496,1.902
				c-0.226,0.079-0.47,0.159-0.73,0.241c0.287,0.022,0.574,0.048,0.86,0.077c2.636-0.603,5.309-0.888,7.986-0.874
				C138.337,129.716,141.033,130.033,143.701,130.631z"/>
			<path style="fill-rule:evenodd;clip-rule:evenodd;fill:#FFFFFF;" d="M261.701,175.415c6.529,3.806,12.526,9.13,17.444,15.855
				c5.107,6.984,8.474,14.69,10.153,22.482c2.455,11.396,1.298,22.972-3.316,32.729c-1.69,3.573-3.844,6.902-6.454,9.889
				c-0.646,0.739-1.322,1.46-2.024,2.157c-0.234,0.428-0.476,0.852-0.722,1.273c-0.019,0.031-0.037,0.063-0.058,0.095
				c0.142-0.111,0.277-0.216,0.41-0.317c1.506-1.16,2.912-2.409,4.22-3.737c1.289-1.31,2.482-2.695,3.579-4.149
				c2.025-2.689,3.719-5.607,5.074-8.696c4.18-9.521,5.154-20.655,2.782-31.62c-1.682-7.777-5.048-15.47-10.145-22.44
				c-4.827-6.601-10.693-11.851-17.082-15.642c-1.114-0.662-2.245-1.279-3.389-1.851c-2.495-1.249-5.055-2.283-7.647-3.096
				c-0.494-0.155-0.989-0.302-1.484-0.441c-0.056-0.017-0.112-0.031-0.167-0.047c-1.028-0.284-2.059-0.533-3.094-0.748
				c-0.474-0.098-0.947-0.188-1.421-0.272c-0.012-0.002-0.023-0.004-0.035-0.006c-0.4-0.071-0.802-0.135-1.204-0.195
				c-0.309-0.046-0.619-0.089-0.928-0.13c-0.222-0.028-0.444-0.055-0.666-0.08c-0.163-0.019-0.325-0.037-0.487-0.053
				c-1.613-0.167-3.227-0.249-4.834-0.243c-0.307,0.001-0.615,0.005-0.921,0.013c-0.257,0.006-0.513,0.015-0.771,0.024
				c-0.584,0.024-1.167,0.061-1.748,0.108c-1.398,0.114-2.788,0.296-4.165,0.546c-0.306,0.056-0.611,0.116-0.915,0.178
				c-2.037,0.418-4.041,0.987-6,1.712c-0.761,0.282-1.516,0.587-2.263,0.915c-0.279,0.124-0.558,0.25-0.835,0.379
				c-0.798,0.373-1.586,0.773-2.364,1.202c-1.602,0.881-3.159,1.88-4.662,2.999c1.517-0.902,3.078-1.696,4.674-2.381
				c0.817-0.352,1.643-0.675,2.476-0.97c0.248-0.087,0.496-0.173,0.745-0.255c0.793-0.265,1.594-0.504,2.4-0.718
				c2.433-0.647,4.92-1.071,7.434-1.275c0.335-0.027,0.671-0.05,1.005-0.07c0.04-0.003,0.08-0.005,0.119-0.006
				c0.189-0.011,0.379-0.02,0.569-0.028c0.352-0.015,0.703-0.026,1.055-0.032c1.78-0.033,3.569,0.042,5.359,0.223
				c0.251,0.025,0.502,0.052,0.752,0.081c1.003,0.117,2.005,0.268,3.005,0.451c1.094,0.199,2.186,0.439,3.274,0.716
				c0.399,0.102,0.796,0.208,1.193,0.32c0.234,0.066,0.467,0.133,0.702,0.203c0.007,0.002,0.014,0.004,0.022,0.006
				c2.687,0.802,5.341,1.84,7.93,3.108C259.434,174.147,260.576,174.758,261.701,175.415z"/>
			<path style="fill-rule:evenodd;clip-rule:evenodd;fill:#C19363;" d="M194.882,114.958c6.4,2.891,15.271,7.991,21.741,14.238
				c0.152,0.148,0.304,0.296,0.455,0.445c1.269,1.258,2.438,2.562,3.468,3.901c0.704,0.917,1.343,1.85,1.905,2.797
				c4.384,7.398,15.534-0.556,13.572-3.962c-3.001-5.21-6.858-9.853-11.741-13.591c-1.086-0.831-2.223-1.617-3.413-2.355
				c-3.777-2.343-8.085-4.195-12.983-5.438c-0.126-0.033-0.253-0.064-0.38-0.096c-3.909,1.192-8.197,2.5-12.899,3.936
				C194.697,114.875,194.79,114.916,194.882,114.958z"/>
			<path style="fill-rule:evenodd;clip-rule:evenodd;fill:#C19363;" d="M280.456,155.15c0.938,0.34,1.879,0.701,2.816,1.081
				c7.356,2.983,14.497,7.149,18.717,12.003c2.114,2.431,4.357,3.512,6.554,3.703c1.869,0.164,3.704-0.317,5.397-1.158
				c2.36-1.172,4.445-3.044,5.963-4.849c-4.263-6.405-10.135-11.407-17.829-14.692c-4.174-1.782-8.882-3.058-14.162-3.779
				c-0.579-0.08-1.164-0.152-1.759-0.218c-0.528-0.059-1.063-0.112-1.602-0.16c-0.545-0.048-1.093-0.09-1.647-0.128
				c-0.001,0-0.004,0-0.005,0c-0.537-0.036-1.08-0.066-1.628-0.092c-0.028-0.001-0.056-0.002-0.083-0.003
				c-0.503-0.022-1.011-0.042-1.521-0.056c-3.68,1.843-7.114,3.441-10.694,5.173c0.688,0.125,1.394,0.267,2.114,0.427
				c0.066,0.014,0.134,0.029,0.202,0.044c0.992,0.223,2.014,0.477,3.055,0.761c0.583,0.159,1.171,0.328,1.765,0.505
				c1.358,0.407,2.742,0.861,4.129,1.36C280.311,155.098,280.383,155.124,280.456,155.15z"/>
			<path style="fill-rule:evenodd;clip-rule:evenodd;fill:#FFFFFF;" d="M241.193,144.254c0.633,0.365,1.256,0.798,1.858,1.293
				c0.948,0.779,1.85,1.716,2.67,2.797c0.468,0.617,0.911,1.281,1.322,1.991c1.774,3.064,2.649,6.443,2.658,9.551
				c0.645-0.362,1.29-0.724,1.934-1.085c0.123-3.286-0.745-6.932-2.648-10.217c-0.904-1.563-1.964-2.907-3.116-4.01
				c-0.514-0.492-1.045-0.936-1.59-1.329c-1.32-0.954-2.715-1.611-4.103-1.94c-0.778-0.184-1.553-0.265-2.312-0.237
				c-1.526,0.055-2.986,0.551-4.263,1.532c-0.512,0.394-0.974,0.85-1.383,1.357c1.153-0.732,2.432-1.103,3.76-1.142
				C237.689,142.766,239.482,143.266,241.193,144.254z"/>
			<path style="fill-rule:evenodd;clip-rule:evenodd;fill:#000100;" d="M241.239,144.174c0.322,0.186,0.639,0.387,0.951,0.604
				c0.31,0.215,0.616,0.448,0.92,0.698c0.481,0.395,0.95,0.831,1.401,1.304c0.444,0.465,0.873,0.969,1.283,1.508
				c0.238,0.313,0.468,0.637,0.691,0.971c0.22,0.331,0.433,0.674,0.638,1.029c0.875,1.51,1.532,3.098,1.976,4.691
				c0.446,1.6,0.675,3.207,0.694,4.75l1.753-0.985c0.057-1.65-0.137-3.391-0.588-5.129c-0.438-1.692-1.119-3.383-2.048-4.987
				c-0.444-0.767-0.926-1.482-1.439-2.142c-0.526-0.676-1.083-1.294-1.662-1.848c-0.253-0.243-0.512-0.475-0.776-0.695
				c-0.266-0.223-0.534-0.431-0.804-0.626c-0.655-0.473-1.328-0.872-2.009-1.194c-0.682-0.322-1.373-0.567-2.063-0.73
				c-0.387-0.092-0.773-0.157-1.155-0.197c-0.38-0.04-0.759-0.052-1.132-0.039c-0.764,0.028-1.513,0.168-2.229,0.425
				c-0.695,0.25-1.36,0.612-1.982,1.088c-0.251,0.192-0.491,0.401-0.718,0.625c-0.1,0.098-0.199,0.2-0.294,0.304
				c0.432-0.232,0.879-0.417,1.338-0.556c0.645-0.196,1.313-0.302,1.993-0.321c0.861-0.025,1.744,0.088,2.625,0.332
				C239.488,143.299,240.374,143.675,241.239,144.174L241.239,144.174z M242.083,144.928c-0.31-0.216-0.623-0.415-0.936-0.596
				c-0.851-0.491-1.723-0.861-2.594-1.101c-0.864-0.238-1.728-0.349-2.571-0.325c-0.663,0.019-1.316,0.123-1.944,0.313
				c-0.613,0.187-1.206,0.457-1.77,0.814c-0.032,0.021-0.075,0.019-0.106-0.006c-0.04-0.032-0.046-0.09-0.014-0.129
				c0.209-0.259,0.43-0.504,0.665-0.734c0.231-0.226,0.476-0.44,0.734-0.638c0.637-0.49,1.319-0.86,2.032-1.116
				c0.734-0.264,1.5-0.407,2.284-0.436c0.383-0.014,0.77-0.001,1.157,0.04c0.392,0.04,0.786,0.107,1.179,0.2
				c0.7,0.166,1.404,0.415,2.098,0.743c0.691,0.327,1.374,0.732,2.039,1.212c0.276,0.2,0.549,0.411,0.814,0.633
				c0.265,0.222,0.527,0.456,0.785,0.704c0.586,0.562,1.149,1.185,1.679,1.867c0.518,0.666,1.004,1.388,1.454,2.164
				c0.937,1.619,1.625,3.325,2.067,5.033c0.459,1.771,0.654,3.546,0.592,5.227c0.001,0.033-0.016,0.065-0.046,0.083l-1.935,1.086
				c-0.013,0.007-0.028,0.011-0.044,0.011c-0.05,0-0.091-0.041-0.091-0.091c-0.005-1.574-0.233-3.22-0.689-4.857
				c-0.439-1.579-1.091-3.151-1.958-4.648c-0.203-0.351-0.414-0.691-0.632-1.02c-0.222-0.333-0.449-0.655-0.683-0.962
				c-0.403-0.532-0.828-1.03-1.269-1.492c-0.448-0.469-0.91-0.899-1.385-1.289C242.696,145.373,242.392,145.144,242.083,144.928z"/>
			<path style="fill-rule:evenodd;clip-rule:evenodd;fill:#FFFFFF;" d="M246.736,140.052c25.097-11.023,25.451-9.994,25.451-9.994
				c2.161-1.08,4.279-1.328,6.245-0.963c-2.821-1.71-6.227-2.156-9.746-0.398c0,0-0.348-1.01-24.722,9.674
				C244.932,138.836,245.859,139.404,246.736,140.052z"/>
			<path style="fill-rule:evenodd;clip-rule:evenodd;fill:#000100;" d="M246.748,139.947c21.273-9.343,24.813-9.992,25.398-9.97
				c1.061-0.53,2.11-0.862,3.137-1.02c0.913-0.14,1.809-0.145,2.676-0.029c-1.344-0.739-2.813-1.189-4.356-1.252
				c-1.565-0.064-3.205,0.27-4.874,1.104c-0.043,0.021-0.095,0.006-0.119-0.034c-0.052-0.052-1.165-0.56-24.426,9.631
				c0.419,0.208,0.83,0.435,1.233,0.678C245.872,139.332,246.316,139.63,246.748,139.947L246.748,139.947z M272.111,130.109
				c-0.001-0.002-0.311-0.966-25.336,10.026c-0.029,0.014-0.066,0.011-0.093-0.01c-0.442-0.326-0.896-0.632-1.361-0.914
				c-0.454-0.275-0.919-0.529-1.394-0.756c-0.021-0.009-0.038-0.025-0.046-0.047c-0.021-0.046,0-0.101,0.046-0.12
				c20.649-9.052,24.133-9.693,24.717-9.673l0.001-0.001c1.697-0.847,3.37-1.186,4.964-1.121c1.738,0.071,3.384,0.623,4.868,1.522
				c0.032,0.018,0.052,0.057,0.046,0.096c-0.01,0.05-0.057,0.083-0.107,0.074c-0.999-0.186-2.04-0.21-3.105-0.046
				c-1.009,0.155-2.041,0.481-3.082,1.001C272.187,130.16,272.138,130.148,272.111,130.109z"/>
			<path style="fill-rule:evenodd;clip-rule:evenodd;fill:#000100;" d="M370.684,123.271c0.236-0.297,0.67-0.346,0.968-0.109
				c0.296,0.235,0.346,0.668,0.109,0.966c-5.347,6.733-14.211,11.066-14.236,11.079c-0.341,0.168-0.753,0.028-0.921-0.313
				c-0.168-0.34-0.028-0.752,0.313-0.92C356.941,133.962,365.529,129.763,370.684,123.271z"/>
			<path style="fill-rule:evenodd;clip-rule:evenodd;fill:#000100;" d="M363.1,117.632c0.236-0.297,0.669-0.346,0.966-0.11
				c0.298,0.237,0.346,0.669,0.111,0.966c-5.348,6.733-14.211,11.066-14.236,11.079c-0.341,0.168-0.754,0.028-0.92-0.313
				c-0.17-0.34-0.03-0.753,0.311-0.92C349.356,128.322,357.945,124.123,363.1,117.632z"/>
			<path style="fill-rule:evenodd;clip-rule:evenodd;fill:#000100;" d="M379.824,139.218c0.236-0.296,0.669-0.346,0.966-0.11
				c0.299,0.237,0.348,0.669,0.11,0.966c-5.346,6.733-14.21,11.066-14.236,11.079c-0.339,0.168-0.752,0.028-0.921-0.313
				c-0.167-0.34-0.028-0.751,0.313-0.92C366.081,149.909,374.67,145.71,379.824,139.218z"/>
			<path style="fill-rule:evenodd;clip-rule:evenodd;fill:#000100;" d="M276.124,114.636c-0.365,0.107-0.747-0.101-0.854-0.466
				c-0.106-0.364,0.102-0.747,0.466-0.853c11.631-3.432,14.791-8.083,14.801-8.096c0.217-0.312,0.645-0.387,0.955-0.169
				c0.31,0.216,0.386,0.644,0.17,0.954C291.651,106.021,288.219,111.067,276.124,114.636z"/>
			<path style="fill-rule:evenodd;clip-rule:evenodd;fill:#000100;" d="M271.846,109.774c-0.364,0.107-0.747-0.102-0.852-0.466
				c-0.108-0.364,0.101-0.746,0.465-0.853c11.631-3.432,14.791-8.083,14.8-8.096c0.218-0.311,0.646-0.387,0.956-0.169
				c0.31,0.217,0.387,0.645,0.17,0.956C287.373,101.16,283.94,106.205,271.846,109.774z"/>
			<path style="fill-rule:evenodd;clip-rule:evenodd;fill:#000100;" d="M284.486,129.61c-0.363,0.107-0.746-0.102-0.853-0.465
				c-0.107-0.364,0.101-0.747,0.464-0.854c11.632-3.432,14.791-8.082,14.802-8.095c0.217-0.311,0.644-0.387,0.955-0.17
				c0.311,0.217,0.386,0.645,0.17,0.955C300.015,120.996,296.582,126.041,284.486,129.61z"/>
			<path style="fill-rule:evenodd;clip-rule:evenodd;fill:#FFFFFF;" d="M249.848,103.568c2.053,0.228,4.369,0.867,6.833,1.883
				c1.406,0.58,2.859,1.283,4.339,2.104c3.278,1.818,6.68,4.209,9.965,7.108c3.387,2.989,6.657,6.521,9.543,10.52
				c-3.067-7.618-8.317-14.402-14.957-19.007c-1.208-0.836-2.462-1.602-3.758-2.287c-5.249-2.777-11.177-4.235-17.466-3.835
				c0,0-0.391-0.023-30.875,9.24c1.362,0.486,2.679,1.022,3.948,1.603c3.132-0.979,5.913-1.886,8.429-2.706
				C236.578,104.694,242.53,102.754,249.848,103.568z"/>
			<path style="fill-rule:evenodd;clip-rule:evenodd;fill:#FFFFFF;" d="M343.254,125.893c-6.412-2.94-13.633-3.839-20.918-1.792
				c0,0-0.39,0.058-29.626,16.371c-1.239,0.692-2.529,1.412-3.873,2.163c-0.724,0.403-1.462,0.815-2.217,1.236
				c-0.073,0.042-0.149,0.084-0.225,0.126c0.002,0,0.003,0,0.004,0c0.068,0.008,0.139,0.016,0.208,0.024
				c0.7,0.078,1.399,0.167,2.096,0.265c1.172,0.167,2.335,0.362,3.491,0.588c6.411-4.617,13.08-7.729,17.531-10.406
				c6.06-3.645,9.335-6.145,14.526-7.445c3.955-0.991,9.137-0.675,14.771,1.224c2.623,0.883,5.343,2.109,8.083,3.706
				c5.1,2.971,10.28,7.228,15.035,12.949c-2.919-6.071-7.294-11.39-12.56-15.266c-0.233-0.018-0.452-0.155-0.562-0.381
				c-0.008-0.012-0.014-0.025-0.018-0.038C347.179,127.928,345.256,126.811,343.254,125.893z"/>
		</g>
		<g>
			<path style="fill-rule:evenodd;clip-rule:evenodd;fill:#000100;" d="M311.546,382.991c0.542-0.188,1.21-0.404,1.723-0.66
				l0.56-0.28l0.622-0.053c0.137-0.012,0.413-0.18,0.409-0.042l-0.084,3.511c-5.526,8.397,1.535,7.127,2.37,8.491
				c1.23,2.009-1.958,4.211-4.352,6.107c-0.314,0.249-0.624,0.502-0.936,0.756l-0.524,0.188
				c-29.863,10.686-77.008,8.954-104.315-9.254c7.293,1.663,17.392,5.787,25.519,6.895c23.505,3.201,46.984,0.492,67.538-8.404
				C305.428,387.928,307.892,384.251,311.546,382.991z"/>
			<path style="fill-rule:evenodd;clip-rule:evenodd;fill:#000100;" d="M333.4,370.355c15.516-10.983,28.834-25.641,30.752-45.323
				c1.726-17.713-6.167-35.275-15.517-49.837c-4.022-6.262-8.349-12.212-12.777-18.186c-3.701-4.993-7.432-10.005-10.61-15.354
				c-8.588-14.446-11.051-29.058-11.71-45.677c-0.38-9.521,2.298-19.237,8.433-26.644c4.643-5.605,11.697-10.196,19.208-10.023
				c1.439,0.034,2.88,0.201,4.279,0.533c1.316,0.311,2.6,0.77,3.798,1.403c7.544,3.985,7.968,12.347,6.135,19.769
				c-0.521,2.108-0.979,4.233-1.28,6.386c-1.408,10.084,1.398,20.806,4.121,30.444c1.686,5.966,3.813,11.888,6.831,17.32
				c8.801,15.845,17.489,32.677,23.119,49.939c4.786,14.679,7.493,30.383,4.407,45.715c-3.908,19.408-16.243,33.928-31.947,45.294
				c-43.876,31.755-99.195,41.823-148.849,17.898l-8.283-4.435c26.219,7.386,52.382,10.285,76.527,5.558
				C298.55,391.509,315.316,383.158,333.4,370.355z"/>
			<path style="fill-rule:evenodd;clip-rule:evenodd;fill:#C19363;" d="M225.756,396.883c48.232,14.15,93.234,5.36,132.978-23.405
				c49.788-36.033,33.671-82.387,3.483-136.732c-2.529-4.555-4.916-10.222-7.117-18.017c-5.73-20.29-5.488-27.89-2.868-38.494
				c3.429-13.88-4.384-17.516-11.129-17.671c-11.104-0.256-25.134,12.749-24.317,33.286c1.656,41.715,15.46,47.806,34.585,77.588
				c22.797,35.503,25.222,70.327-16.091,99.573c-19.978,14.141-36.568,21.856-53.667,25.252
				C265.435,401.477,248.684,400.462,225.756,396.883z"/>
			<path style="fill-rule:evenodd;clip-rule:evenodd;fill:#000100;" d="M338.474,170.403c0.628-0.079,1.2,0.364,1.278,0.991
				c0.08,0.627-0.364,1.2-0.99,1.279c-3.307,0.423-6.457,2.264-8.978,5.062c-2.53,2.808-4.413,6.564-5.184,10.814
				c-1.386,7.633-0.4,17.07,1.982,26.396c2.702,10.581,7.197,20.976,12.066,28.425c2.96,4.526,6.069,8.893,9.173,13.252
				c14.554,20.439,29.012,40.745,24.551,71.166c-2.707,18.451-15.402,36.013-32.873,49.047
				c-17.602,13.133-40.085,21.693-62.087,21.941c-0.633,0.006-1.148-0.503-1.153-1.135c-0.005-0.632,0.502-1.147,1.135-1.152
				c21.494-0.242,43.49-8.629,60.733-21.493c17.01-12.691,29.36-29.72,31.973-47.54c4.331-29.515-9.86-49.443-24.146-69.506
				c-3.146-4.418-6.296-8.844-9.227-13.324c-5-7.648-9.606-18.297-12.37-29.116c-2.454-9.605-3.46-19.379-2.011-27.364
				c0.852-4.691,2.935-8.839,5.732-11.945C330.958,173.007,334.603,170.898,338.474,170.403z"/>
			<path style="fill-rule:evenodd;clip-rule:evenodd;fill:#000100;" d="M338.316,172.882c-0.625,0.104-1.215-0.318-1.319-0.942
				c-0.104-0.624,0.318-1.215,0.942-1.318c2.823-0.481,4.989-0.376,6.647,0.096c1.646,0.469,2.803,1.298,3.603,2.292
				c0.798,0.99,1.22,2.126,1.406,3.225c0.248,1.456,0.073,2.863-0.175,3.737c-2.903,10.186-3.111,20.844-0.061,33.27
				c3.076,12.528,9.453,26.852,19.704,44.279c11.845,20.136,18.193,40.284,19.711,57.893c1.632,18.953-2.339,35.019-11.085,45.052
				c-0.417,0.476-1.139,0.523-1.615,0.108c-0.477-0.417-0.523-1.14-0.108-1.615c8.332-9.556,12.099-25.017,10.52-43.357
				c-1.489-17.293-7.736-37.102-19.396-56.923c-10.369-17.627-16.827-32.148-19.956-44.889c-3.152-12.844-2.931-23.879,0.08-34.444
				c0.18-0.632,0.304-1.656,0.121-2.733c-0.128-0.75-0.409-1.517-0.932-2.165c-0.52-0.647-1.302-1.194-2.445-1.52
				C342.606,172.54,340.773,172.464,338.316,172.882z"/>
			<path style="fill-rule:evenodd;clip-rule:evenodd;fill:#000100;" d="M337.239,181.529c-2.879,0-5.544,3.182-5.954,7.107
				c-0.412,3.925,1.589,7.107,4.467,7.107c2.879,0,5.545-3.182,5.955-7.107C342.118,184.711,340.117,181.529,337.239,181.529z"/>
		</g>
	</g>
</g>
</svg>
