<svg xmlns="http://www.w3.org/2000/svg" version="1.1" xmlns:xlink="http://www.w3.org/1999/xlink" xmlns:svgjs="http://svgjs.dev/svgjs" width="1440" height="1080" preserveAspectRatio="none" viewBox="0 0 1440 1080"><g mask="url(&quot;#SvgjsMask1064&quot;)" fill="none"><rect width="1440" height="1080" x="0" y="0" fill="rgba(225, 155, 14, 1)"></rect><path d="M-52.01 539.46C149.45 560.07 311.16 956.7 619.1 993.06 927.04 1029.42 848.06 1247.82 954.66 1264.02" stroke="rgba(215, 218, 222, 0.58)" stroke-width="2"></path><path d="M-266.73 431.8C-146.3 433.17-35.51 566.8 195.7 566.8 426.92 566.8 387.01 409.14 658.14 431.8 929.27 454.46 930.1 1048.37 1120.57 1140.41" stroke="rgba(215, 218, 222, 0.58)" stroke-width="2"></path><path d="M-239.31 159.74C-79.08 194.29-91.12 537.98 234.09 613.34 559.3 688.7 542.51 1060.43 707.49 1101.36" stroke="rgba(215, 218, 222, 0.58)" stroke-width="2"></path><path d="M-158.17 964.54C-3.86 941.76 75.93 572.96 329.83 575.74 583.72 578.52 625.96 1167.32 817.82 1245.49" stroke="rgba(215, 218, 222, 0.58)" stroke-width="2"></path><path d="M-30.32 766.97C77.46 768.7 174.44 901.97 379.2 901.97 583.95 901.97 577.61 765.41 788.71 766.97 999.82 768.53 1066.78 1086.28 1198.23 1107.54" stroke="rgba(215, 218, 222, 0.58)" stroke-width="2"></path></g><defs><mask id="SvgjsMask1064"><rect width="1440" height="1080" fill="#ffffff"></rect></mask></defs></svg>