<svg xmlns="http://www.w3.org/2000/svg" version="1.1" xmlns:xlink="http://www.w3.org/1999/xlink" xmlns:svgjs="http://svgjs.dev/svgjs" width="1440" height="560" preserveAspectRatio="none" viewBox="0 0 1440 560"><g mask="url(&quot;#SvgjsMask1007&quot;)" fill="none"><rect width="1440" height="560" x="0" y="0" fill="rgba(225, 155, 14, 1)"></rect><path d="M558.43 651.49C682.67 587 626.41 177.36 854.11 176 1081.8 174.64 1283.18 438.59 1445.46 444.8" stroke="rgba(215, 218, 222, 0.58)" stroke-width="2"></path><path d="M734.85 642.66C845.63 576.03 785.84 195.94 987.75 191.63 1189.66 187.32 1359.88 362.84 1493.55 365.23" stroke="rgba(215, 218, 222, 0.58)" stroke-width="2"></path><path d="M304.08 596.72C441.13 580.4 519.05 275.81 751.57 273.38 984.09 270.95 975.31 343.38 1199.06 343.38 1422.81 343.38 1533.32 273.59 1646.55 273.38" stroke="rgba(215, 218, 222, 0.58)" stroke-width="2"></path><path d="M571.05 616.16C714.29 599.57 801.6 281.91 1040.53 281.12 1279.46 280.33 1386.28 435.87 1510.01 437.92" stroke="rgba(215, 218, 222, 0.58)" stroke-width="2"></path><path d="M580.43 603.54C709.93 601.84 812.35 457.09 1075.69 451.6 1339.04 446.11 1436.81 248.52 1570.96 244.4" stroke="rgba(215, 218, 222, 0.58)" stroke-width="2"></path></g><defs><mask id="SvgjsMask1007"><rect width="1440" height="560" fill="#ffffff"></rect></mask></defs></svg>