<?xml version="1.0" encoding="utf-8"?>
<!-- Generator: Adobe Illustrator 27.5.0, SVG Export Plug-In . SVG Version: 6.00 Build 0)  -->
<svg version="1.1" xmlns="http://www.w3.org/2000/svg" xmlns:xlink="http://www.w3.org/1999/xlink" x="0px" y="0px"
	 viewBox="0 0 500 500" style="enable-background:new 0 0 500 500;" xml:space="preserve">
<g id="BACKGROUND">
	<g>
		<linearGradient id="SVGID_1_" gradientUnits="userSpaceOnUse" x1="250" y1="500" x2="250" y2="-9.094947e-13">
			<stop  offset="0.1223" style="stop-color:#FFFFFF"/>
			<stop  offset="0.2656" style="stop-color:#FFFDFA"/>
			<stop  offset="0.4446" style="stop-color:#FFF6EA"/>
			<stop  offset="0.6331" style="stop-color:#FFECD2"/>
		</linearGradient>
		<rect style="fill:url(#SVGID_1_);" width="500" height="500"/>
		<g>
			
				<radialGradient id="SVGID_00000138561008135958994040000004901693005290057359_" cx="350.6347" cy="347.5528" r="130.3652" gradientUnits="userSpaceOnUse">
				<stop  offset="0.142" style="stop-color:#FFFFFF"/>
				<stop  offset="0.3779" style="stop-color:#FFFDFA;stop-opacity:0.725"/>
				<stop  offset="0.6458" style="stop-color:#FFF7ED;stop-opacity:0.4128"/>
				<stop  offset="0.9284" style="stop-color:#FFEDD6;stop-opacity:0.0835"/>
				<stop  offset="1" style="stop-color:#FFEACF;stop-opacity:0"/>
			</radialGradient>
			<circle style="fill:url(#SVGID_00000138561008135958994040000004901693005290057359_);" cx="350.635" cy="347.553" r="130.365"/>
			
				<ellipse transform="matrix(0.7071 -0.7071 0.7071 0.7071 -143.0583 349.7321)" style="fill:#FFB947;" cx="350.635" cy="347.553" rx="56.365" ry="56.365"/>
			
				<ellipse transform="matrix(0.7071 -0.7071 0.7071 0.7071 -143.0583 349.7321)" style="opacity:0.7;fill:#FFA538;" cx="350.635" cy="347.553" rx="36.365" ry="36.365"/>
		</g>
		
			<linearGradient id="SVGID_00000047754941619697177620000013046034071256673674_" gradientUnits="userSpaceOnUse" x1="250" y1="500" x2="250" y2="257.619">
			<stop  offset="0.1217" style="stop-color:#DFD4A8"/>
			<stop  offset="0.6771" style="stop-color:#ECE6D3"/>
		</linearGradient>
		<path style="fill:url(#SVGID_00000047754941619697177620000013046034071256673674_);" d="M473.284,303.894
			c-13.444,2.769-25.813,8.265-38.623,14.331c-10.716,5.075-21.722,9.84-32.212,15.354c-9.439,4.961-18.381,10.822-28.538,14.273
			c-12.841,4.363-24.385,3.552-36.311-3.001c-9.984-5.486-18.368-14.379-25.439-23.181c-7.069-8.798-13.489-18.326-19.296-27.999
			c-0.238-0.396-0.388-0.656-0.477-0.82c-0.169-0.231-0.374-0.516-0.632-0.876c-0.967-1.351-1.956-2.684-3.003-3.975
			c-1.816-2.24-3.766-4.439-5.92-6.368c-0.156-0.108-0.338-0.233-0.565-0.389c-1.077-0.74-2.095-1.546-3.2-2.25
			c-0.745-0.474-1.512-0.922-2.289-1.347c-0.359-0.149-1.169-0.504-1.521-0.613c-1.298-0.402-2.589-0.839-3.89-1.237
			c-0.164-0.05-0.288-0.091-0.411-0.132c-0.155-0.004-0.342-0.012-0.572-0.026c-1.912-0.117-3.8-0.272-5.717-0.321
			c-0.177-0.005-0.324-0.01-0.457-0.016c-0.159,0.031-0.352,0.066-0.589,0.106c-1.166,0.195-2.343,0.308-3.508,0.519
			c-1.988,0.359-3.956,0.828-5.901,1.376c-0.46,0.13-0.915,0.274-1.372,0.412c-0.142,0.055-0.51,0.186-1.125,0.399
			c-1.193,0.486-2.409,0.915-3.6,1.405c-2.036,0.838-4.045,1.74-6.034,2.683c-4.554,2.159-8.992,4.556-13.377,7.039
			c-20.228,11.457-40.627,27.629-64.803,28.383c-29.357,0.915-44.732-28.711-62.725-46.991c-3.637-3.695-7.494-7.102-12.829-9.8
			c0.099,0.106-2.587-1.043-2.593-1.046c-0.862-0.321-1.736-0.616-2.615-0.887c-0.087-0.027-2.452-0.623-2.609-0.714
			c-1.029-0.172-2.069-0.304-3.102-0.402c-8.801-0.837-18.435,1.638-26.524,4.896C33.143,269.833,17.161,280.583,0,288.948V500h500
			V303.429C491.315,301.878,482.849,301.924,473.284,303.894z"/>
	</g>
</g>
<g id="OBJECTS">
	
		<linearGradient id="SVGID_00000008849587400043847250000017215981451493625520_" gradientUnits="userSpaceOnUse" x1="378.9172" y1="500" x2="378.9172" y2="352.0652">
		<stop  offset="0.1223" style="stop-color:#FFFFFF"/>
		<stop  offset="0.2656" style="stop-color:#FFFDFA"/>
		<stop  offset="0.4446" style="stop-color:#FFF6EA"/>
		<stop  offset="0.6331" style="stop-color:#FFECD2"/>
	</linearGradient>
	<path style="fill:url(#SVGID_00000008849587400043847250000017215981451493625520_);" d="M415.473,475.93
		c11.77-11.053,24.338-21.056,37.427-30.488c6.237-4.495,12.468-9.025,18.255-14.097c3.004-2.633,5.82-5.43,8.543-8.349
		c0.428-0.459,0.856-0.96,1.294-1.445c0.757-0.916,1.518-1.829,2.254-2.762c5.069-6.428,9.629-13.247,13.827-20.272
		c0.997-1.668,1.97-3.35,2.926-5.041v-41.412c-27.986,38.072-40.333,71.601-98.333,91.13
		C355.25,458.823,285.003,441.618,257.835,500h135.203C399.73,491.305,407.534,483.386,415.473,475.93z"/>
	<g>
		
			<linearGradient id="SVGID_00000016795262102890003680000017261680098326875031_" gradientUnits="userSpaceOnUse" x1="401.6712" y1="203.8401" x2="401.6712" y2="152.8391">
			<stop  offset="0.0736" style="stop-color:#FFFFFF;stop-opacity:0"/>
			<stop  offset="0.403" style="stop-color:#FFFFFF"/>
		</linearGradient>
		<path style="opacity:0.8;fill:url(#SVGID_00000016795262102890003680000017261680098326875031_);" d="M484.468,197.917
			c-1.798-1.389-3.596-2.778-5.394-4.168c-4.454-2.583-9.259-3.883-14.414-3.899c-1.425-0.077-2.779,0.307-4.227,0.501
			c-2.583,0.008-4.991,0.659-7.224,1.954c-1.358,0.24-2.552,0.762-3.582,1.567c-0.103,0.08-0.206,0.159-0.31,0.239
			c-1.15-3.384-2.995-6.361-5.544-8.928c-1.559-1.204-3.118-2.409-4.677-3.613c-3.604-2.09-7.491-3.142-11.662-3.155
			c-2.59-0.098-5.035,0.333-7.342,1.273c-0.268-1.651-0.794-3.231-1.587-4.739c-0.835-2.565-2.261-4.785-4.279-6.66
			c-2.582-2.565-5.626-4.339-9.132-5.322c-3.888-1.07-5.088-0.861-8.442-0.411c-0.616,0.002-1.216,0.059-1.804,0.162
			c-0.813-1.243-1.753-2.412-2.833-3.499c-1.467-1.133-2.933-2.266-4.4-3.4c-3.391-1.967-7.049-2.956-10.973-2.968
			c-2.993-0.113-5.785,0.511-8.376,1.872c-2.695,0.877-5.028,2.375-6.997,4.495c-2.12,1.969-3.619,4.301-4.495,6.997
			c-1.359,2.586-1.982,5.373-1.872,8.36c-4.84,2.29-8.573,7.03-8.869,12.46c-6.434-1.007-12.97-0.262-18.735,3.111
			c-3.089,1.808-6.096,4.574-8.423,7.768H484.468z"/>
		
			<linearGradient id="SVGID_00000068661034025624572950000015792317995102927756_" gradientUnits="userSpaceOnUse" x1="525.0789" y1="167.895" x2="525.0789" y2="121.2547" gradientTransform="matrix(-1 0 0 1 620.8766 0)">
			<stop  offset="0.0736" style="stop-color:#FFFFFF;stop-opacity:0"/>
			<stop  offset="0.403" style="stop-color:#FFFFFF"/>
		</linearGradient>
		<path style="opacity:0.8;fill:url(#SVGID_00000068661034025624572950000015792317995102927756_);" d="M25.191,162.479
			c-0.195-2.003-0.032-4.006,0.506-6.009c0.789-2.811,2.211-5.252,4.268-7.323c2.071-2.057,4.512-3.479,7.323-4.268
			c0.927-0.312,1.448-0.287,2.701-0.455c1.497-0.402,2.994-0.402,4.491,0c0.883-0.055,1.718,0.079,2.505,0.4
			c2.194,0.522,4.106,1.528,5.734,3.018c1.836,1.189,3.284,2.766,4.343,4.731c0.157,0.371,0.313,0.743,0.47,1.114
			c0.344-1.947,1.019-3.804,2.041-5.566c0.882-1.142,1.764-2.284,2.647-3.426c2.112-2.098,4.602-3.549,7.469-4.353
			c1.739-0.27,3.48-0.617,5.24-0.674c0.755-0.029,1.492,0.01,2.214,0.102c0.133-0.645,0.356-1.264,0.697-1.852
			c0.291-1.038,0.816-1.939,1.576-2.704c0.545-0.921,1.277-1.654,2.198-2.198c0.765-0.759,1.666-1.285,2.704-1.576
			c1.46-0.767,3.034-1.119,4.721-1.056c0.335,0.045,0.669,0.09,1.004,0.135c1.471-5.267,6.384-9.264,12.048-9.264
			c6.469,0,11.998,5.268,12.463,11.646c1.771,0.051,3.444,0.463,5.005,1.283c1.876,0.61,3.499,1.653,4.869,3.128
			c1.141,1.059,2.016,2.274,2.639,3.635c0.279-0.216,0.558-0.431,0.837-0.647c2.64-1.531,5.488-2.301,8.543-2.311
			c2.331-0.088,4.504,0.398,6.521,1.458c2.098,0.683,3.914,1.849,5.448,3.5c1.651,1.533,2.817,3.349,3.5,5.447
			c0.367,0.698,0.66,1.415,0.889,2.151c6.357,0.551,11.745,6.021,13.678,11.932H25.191z"/>
		
			<linearGradient id="SVGID_00000085971967360156057050000011472170042310151358_" gradientUnits="userSpaceOnUse" x1="361.1936" y1="76.031" x2="361.1936" y2="53.3135">
			<stop  offset="0.0736" style="stop-color:#FFFFFF;stop-opacity:0"/>
			<stop  offset="0.403" style="stop-color:#FFFFFF"/>
		</linearGradient>
		<path style="opacity:0.8;fill:url(#SVGID_00000085971967360156057050000011472170042310151358_);" d="M401.671,73.393
			c-0.646-1.779-1.644-3.354-2.999-4.719c-2.522-2.315-5.622-3.776-9.115-3.776c-0.912-0.035-1.793,0.049-2.642,0.245
			c-0.516-0.545-1.091-1.032-1.735-1.449c-0.786-0.781-1.714-1.321-2.781-1.621c-1.502-0.789-3.121-1.151-4.857-1.086
			c-1.131-0.12-2.731,0.102-3.816,0.401c-1.234,0.34-2.457,0.929-3.568,1.662l-0.041-0.305c-0.61-2.174-1.71-4.063-3.301-5.664
			c-0.866-0.669-1.732-1.338-2.598-2.007c-2.002-1.161-4.162-1.745-6.479-1.753c-1.767-0.067-3.416,0.302-4.946,1.106
			c-1.591,0.518-2.968,1.402-4.131,2.654c-1.252,1.163-2.136,2.54-2.654,4.131c-0.325,0.619-0.576,1.259-0.758,1.918
			c-0.679-0.191-1.418-0.303-2.231-0.303c-3.116,0-5.246,1.532-6.395,3.625c-1.34-0.462-2.742-0.696-4.207-0.7
			c-1.782-0.067-3.444,0.304-4.986,1.115c-1.605,0.522-2.993,1.414-4.165,2.676c-1.177,1.093-2.018,2.382-2.551,3.85H401.671z"/>
		
			<linearGradient id="SVGID_00000027578448939544346320000002490330790540615586_" gradientUnits="userSpaceOnUse" x1="158.7071" y1="233.8382" x2="158.7071" y2="216.3147">
			<stop  offset="0.0736" style="stop-color:#FFFFFF;stop-opacity:0"/>
			<stop  offset="0.403" style="stop-color:#FFFFFF"/>
		</linearGradient>
		<path style="opacity:0.8;fill:url(#SVGID_00000027578448939544346320000002490330790540615586_);" d="M198.527,231.803
			c-0.527-1.543-1.347-2.938-2.462-4.185c-0.828-0.704-1.657-1.407-2.485-2.111c-1.807-1.144-3.777-1.775-5.912-1.894
			c-1.611-0.144-3.141,0.106-4.589,0.75c-1.586,0.404-2.979,1.189-4.18,2.355c-0.37,0.308-0.706,0.638-1.016,0.984
			c-0.333-0.546-0.717-1.067-1.158-1.559c-0.71-0.603-1.419-1.206-2.129-1.808c-1.548-0.98-3.236-1.521-5.065-1.623
			c-1.024-0.092-2.008,0.003-2.955,0.283c-0.402-1.316-1.066-2.499-2.003-3.545c-0.642-0.545-1.284-1.091-1.926-1.636
			c-1.4-0.887-2.928-1.376-4.582-1.468c-1.249-0.112-2.434,0.082-3.557,0.581c-1.229,0.313-2.309,0.921-3.24,1.826
			c-0.997,0.831-1.715,1.842-2.154,3.032c-0.13,0.225-0.243,0.455-0.346,0.688c-1.374-1.242-3.133-2.031-5.139-2.031
			c-3.526,0-7.048,2.017-8.487,5.188c-1.609-1.018-3.363-1.58-5.263-1.686c-1.435-0.128-2.797,0.094-4.086,0.668
			c-1.412,0.359-2.653,1.059-3.723,2.098c-1.145,0.955-1.97,2.116-2.475,3.483c-0.298,0.517-0.532,1.055-0.708,1.611H198.527z"/>
		
			<linearGradient id="SVGID_00000163771822865921779820000003462397651198321798_" gradientUnits="userSpaceOnUse" x1="413.4826" y1="270.4871" x2="413.4826" y2="248.5808">
			<stop  offset="0.092" style="stop-color:#FFFFFF;stop-opacity:0"/>
			<stop  offset="0.6621" style="stop-color:#FFFFFF"/>
		</linearGradient>
		<path style="fill:url(#SVGID_00000163771822865921779820000003462397651198321798_);" d="M452.515,267.943
			c-0.623-1.716-1.585-3.234-2.892-4.55c-2.432-2.233-5.422-3.641-8.79-3.641c-0.88-0.033-1.729,0.047-2.548,0.237
			c-0.498-0.526-1.052-0.995-1.673-1.397c-0.758-0.753-1.652-1.274-2.682-1.563c-1.449-0.761-3.01-1.11-4.683-1.047
			c-1.091-0.116-2.633,0.098-3.679,0.387c-1.19,0.328-2.369,0.896-3.441,1.603l-0.039-0.294c-0.588-2.097-1.649-3.917-3.183-5.462
			c-0.835-0.645-1.67-1.29-2.505-1.935c-1.931-1.12-4.013-1.683-6.247-1.69c-1.704-0.064-3.294,0.291-4.769,1.066
			c-1.534,0.499-2.862,1.352-3.983,2.559c-1.207,1.121-2.06,2.449-2.559,3.984c-0.314,0.597-0.555,1.214-0.731,1.849
			c-0.655-0.184-1.368-0.292-2.152-0.292c-3.005,0-5.059,1.477-6.167,3.496c-1.292-0.445-2.644-0.671-4.056-0.675
			c-1.718-0.065-3.321,0.293-4.808,1.075c-1.547,0.503-2.886,1.363-4.016,2.58c-1.135,1.054-1.946,2.296-2.46,3.713H452.515z"/>
	</g>
	<g>
		<g>
			<path style="fill:#D1711F;" d="M253.339,332.914c-0.543,7.858-5.436,33.206-5.436,33.206l-18.339,4.773
				c0,0-1.41-2.015-0.604-12.693c0.806-10.678,3.042-27.905,10.175-34.554L253.339,332.914z"/>
			<path style="fill:#C9620A;" d="M237.39,325.642c-5.755,7.635-7.694,22.811-8.43,32.558c-0.806,10.678,0.604,12.693,0.604,12.693
				l5.406-1.407C234.018,354.832,234.489,340.217,237.39,325.642z"/>
			<path style="fill:#FFCC9D;" d="M228.602,364.647c0,0-2.166,4.483-0.8,12.139c0,0,11.1,3.055,16.405,1.402
				c0,0,0.873-0.243,1.845-2.856c0.9-2.416,2.503-7.814,1.852-9.213C247.903,366.12,237.636,369.029,228.602,364.647z"/>
			<path style="fill:#FFBA7A;" d="M234.698,366.59c-2.01-0.365-4.082-0.965-6.096-1.943c0,0-2.166,4.483-0.8,12.139
				c0,0,3.221,0.882,7.017,1.442C234.554,374.356,234.672,370.433,234.698,366.59z"/>
			<path style="fill:#1D262D;" d="M227.614,374.857c0,0,0.498,2.486,9.697,2.703c2.579,0.061,8.461,0.142,8.741-2.045
				c0,0,1.193-1.297-0.167,7.206c-1.051,6.574-2.855,17.377-2.855,17.377s9.34-0.098,9.806,5.902h-26.293
				C226.542,406,225.754,375.419,227.614,374.857z"/>
		</g>
		<g>
			<path style="fill:#D1711F;" d="M214.069,334.933C213.522,342.852,194.74,401,194.74,401h-8.934c0,0-0.812-28.66,0-39.422
				c0.812-10.762,6.943-27.863,14.132-34.564L214.069,334.933z"/>
			<path style="fill:#C9620A;" d="M190.491,377.587c-0.007-1.816,0.004-3.632,0.055-5.449c0.128-4.605,0.645-9.066,1.395-13.452
				c1.098-9.371,2.77-18.665,5.042-27.805c-5.849,7.983-10.479,21.879-11.177,31.126c-0.812,10.762,0,39.853,0,39.853h5.055
				C190.34,393.788,190.201,385.681,190.491,377.587z"/>
			<path style="fill:#FFCC9D;" d="M185.444,367.957c0,0-2.183,4.518-0.807,12.234c0,0,11.186,3.079,16.533,1.413
				c0,0,4.052-4.585,3.726-12.163C204.897,369.441,194.549,372.374,185.444,367.957z"/>
			<path style="fill:#FFBA7A;" d="M190.247,369.689c0-0.017,0.003-0.032,0.004-0.05c-1.599-0.378-3.221-0.913-4.806-1.681
				c0,0-2.183,4.518-0.807,12.234c0,0,2.534,0.693,5.758,1.244C190.205,377.529,190.239,373.606,190.247,369.689z"/>
			<path style="fill:#1D262D;" d="M184.448,378.43c0,0,0.502,2.414,9.772,2.632c2.599,0.061,8.527,0.097,8.809-2.107
				c0,0,1.578-0.164-0.774,6.421c-2.257,6.319-4.709,18.502-4.709,18.502s9.413-0.88,9.883,6.12h-26.499
				C180.932,410,182.574,378.997,184.448,378.43z"/>
		</g>
		<path style="fill:#1D262D;" d="M241.013,133.339c-15.466,2.753-36.32,7.626-40.325,17.075
			c-4.005,9.449-10.075,77.022-10.834,90.55c-0.759,13.527,18.343,11.014,18.343,11.014l29.286-3.755l9.579-93.252L241.013,133.339z
			"/>
		<path style="fill:#7A821C;" d="M228.328,333.834c3.431,5.061,22.286,5.19,27.07-0.076c4.784-5.266,5.24-72.525,3.628-88.644
			l-49.086-2.887c0,0-7.053,1.44-8.398,6.342c-5.113,18.622,0.064,25.585-3.173,40.753c-4.387,20.557-5.876,37.208-5.173,38.72
			c6.52,14.036,25.098,10.187,27.589,7.243c2.491-2.943,8.896-55.181,8.896-55.181l3.561-0.33
			C232.699,294.629,225.943,330.315,228.328,333.834z"/>
		<path style="fill:#717A00;" d="M194.442,330.288c0.607-4.005,1.294-7.997,2.113-11.968c2.033-9.844,5.768-19.178,7.854-29.034
			c2.161-10.209,2.261-20.198,2.934-30.544c0.342-5.265,0.677-11.043,2.048-16.379c-1.671,0.45-6.73,2.127-7.85,6.206
			c-5.113,18.622,0.064,25.585-3.173,40.753c-4.387,20.557-5.876,37.207-5.173,38.72
			C193.572,328.85,193.992,329.594,194.442,330.288z"/>
		<path style="fill:#717A00;" d="M222.799,276.965c2.086,1.63,6.882,3.138,6.882,3.138l3.561-0.33
			c-0.061,1.67-0.204,3.614-0.4,5.736c0.011,0.121,0,0.234-0.032,0.35c-1.587,16.792-6.584,44.873-4.482,47.975
			c0.86,1.269,2.692,2.228,5.027,2.87c-1.889-5.491-1.063-11.918-0.437-17.903c1.525-14.565,2.035-23.074,4.163-37.568
			c0.165-1.123,4.59-4.233,5.185-8.014C238.503,277.203,233.69,278.737,222.799,276.965z"/>
		<path style="fill:#656B17;" d="M254.514,247.217c0.646,6.281,1.773,12.468,4.086,18.37c0.366,0.935,0.793,1.794,1.244,2.624
			c-0.077-10.054-0.366-18.583-0.818-23.098l-5.495-0.323C254.041,245.394,254.408,246.184,254.514,247.217z"/>
		<path style="fill:#656B17;" d="M193.165,323.055c-0.19,2.776-0.176,4.542,0.031,4.986c6.52,14.036,25.098,10.187,27.589,7.243
			c0.524-0.619,1.222-3.437,1.997-7.476C214.717,332.023,200.625,329.302,193.165,323.055z"/>
		<path style="fill:#656B17;" d="M210.812,265.695c5.303-3.986,8.631-11.81,10.151-17.998c0.322-1.312,1.014-2.169,1.869-2.68
			c0.171-0.672,0.361-1.338,0.57-1.998l-13.461-0.792c0,0-7.053,1.44-8.398,6.342c-2.313,8.425-2.517,14.459-2.349,19.951
			C203.366,268.815,207.489,268.193,210.812,265.695z"/>
		<path style="fill:#535900;" d="M199.838,258.238c1.331-0.026,6.887-7.41,8.09-8.735c2.042-2.25,3.932-4.617,5.725-7.058
			l-3.713-0.218c0,0-7.053,1.44-8.398,6.342c-0.997,3.632-1.587,6.802-1.939,9.694C199.683,258.257,199.756,258.239,199.838,258.238
			z"/>
		<path style="fill:#656B17;" d="M228.053,325.502c-0.345,4.324-0.345,7.418,0.275,8.332c3.431,5.061,22.286,5.19,27.07-0.076
			c0.919-1.012,1.678-4.322,2.293-9.11C248.485,329.685,235.657,331.666,228.053,325.502z"/>
		<path style="fill:#FFCC9D;" d="M261.54,220.291c-3.057,8.35-3.057,19.218,0,26.69c0,0-20.378,15.963-56.038-1.698l30.736-104.435
			l20.132,3.19l14.956,39.735L261.54,220.291"/>
		<path style="fill:#FFBA7A;" d="M234.176,147.852l-28.675,97.431c6.085,3.013,11.713,5.03,16.882,6.332
			c1.504-7.29,5.401-13.644,9.869-19.703c5.07-6.874,8.951-13.193,10.973-21.617c3.626-15.104,1.852-31.071,0.842-46.634
			C241.395,157.735,238.212,152.37,234.176,147.852z"/>
		<g>
			<g>
				<defs>
					<path id="XMLID_1_" d="M205.752,134.284c0.857,9.378-3.817,17.47-10.439,18.075c-6.622,0.605-12.685-6.507-13.541-15.884
						c-0.857-9.378,3.817-17.47,10.439-18.075C198.833,117.795,204.896,124.907,205.752,134.284z"/>
				</defs>
				<use xlink:href="#XMLID_1_"  style="overflow:visible;fill:#FF9B22;"/>
				<clipPath id="XMLID_00000070091784033059541050000011527392611115623589_">
					<use xlink:href="#XMLID_1_"  style="overflow:visible;"/>
				</clipPath>
				<path style="clip-path:url(#XMLID_00000070091784033059541050000011527392611115623589_);fill:#CF7100;" d="M207.825,134.292
					c0.521,5.698,2.898,8.903-0.471,11.554c-1.323,1.041-9.774,4.739-11.441,4.892c-5.912,0.54-11.292-5.456-12.017-13.391
					c-0.725-7.936,3.253-14.982,9.075-16.141c2.77-0.551,13.558-2.947,13.558-2.947S207.216,127.62,207.825,134.292z"/>
				<path style="clip-path:url(#XMLID_00000070091784033059541050000011527392611115623589_);fill:#EB860C;" d="M207.825,134.292
					c-0.61-6.673-1.297-16.034-1.297-16.034s-10.788,2.396-13.558,2.947c-0.084,0.017-0.164,0.047-0.247,0.066
					c11.29,1.803,14.776,25.416,4.194,29.228c0.001,0.094,0.279-0.181,0.273-0.09c2.92-0.945,9.051-3.688,10.164-4.563
					C210.724,143.195,208.346,139.99,207.825,134.292z"/>
				<path style="clip-path:url(#XMLID_00000070091784033059541050000011527392611115623589_);fill:#B56300;" d="M202.612,143.532
					c-1.066,2.007-3.947,3.588-6.169,3.373c-3.081-0.297-7.506-2.872-8.03-10.477c-0.459-6.653,2.499-10.305,3.9-10.982
					c1.401-0.677,2.076-0.677,5.23-1.611C202.851,127.664,205.07,137.416,202.612,143.532z"/>
				<path style="opacity:0.6;clip-path:url(#XMLID_00000070091784033059541050000011527392611115623589_);fill:#674800;" d="
					M192.504,128.622c-0.925,0.45-1.891,2.7-1.367,8.81c0.293,3.416,2.625,7.152,4.568,6.62
					C199.57,142.995,196.926,126.471,192.504,128.622z"/>
			</g>
			<path style="fill:#FFAE36;" d="M197.209,151.966c2.296-0.582,13.057-7.642,27.498-13.21c5.717-2.204,38.921-11.553,45.494-12.795
				c0,0,2.761-3.907,1.126-13.699c-1.635-9.792-8.063-16.231-8.063-16.231s-56.913,19.466-72.366,20.085c0,0,8.491,2.034,12,9.563
				c3.09,6.628,3.284,13.324,1.415,17.83C201.433,150.45,197.209,151.966,197.209,151.966z"/>
			<path style="fill:#EB860C;" d="M207.577,113.005c0,0,0.099-0.662,1.771-0.165c0,0,5.239,1.995,7.355,14.083
				c2.085,11.912-2.018,16.071-2.024,16.145l-1.473,0.704c0,0,4.309-4.286,2.034-17.359
				C213.344,115.519,207.577,113.005,207.577,113.005z"/>
		</g>
		<g>
			<path style="fill:#D1711F;" d="M178.444,214.325c0,0-6.793,16.909-7.698,39.273c0,0-2.943,5.44-3.792,7.308
				c-0.849,1.868,2.208,4.076,4.585,5.774c2.377,1.698,6.124,2.208,6.798,0c0.674-2.208,2.385-8.047,1.284-11.273
				c-1.101-3.227,9.296-18.671,11.73-36.728c-5.067-3.623,0,0,0,0L178.444,214.325"/>
			<path style="fill:#C9620A;" d="M177.163,264.107c-8.943-0.657-4.057-13.647-3.059-18.368c2.107-9.972,3.968-20.711,8.037-30.167
				l-3.697-1.247c0,0-6.793,16.909-7.698,39.273c0,0-2.943,5.44-3.793,7.308c-0.849,1.868,2.208,4.076,4.585,5.774
				c2.377,1.698,6.124,2.208,6.798,0c0.201-0.66,0.495-1.647,0.779-2.789C178.527,264.072,177.883,264.16,177.163,264.107z"/>
		</g>
		<path style="fill:#7A821C;" d="M236.238,140.848c0,0-34.472,8.261-43.076,22.102c-8.604,13.842-13.132,35.125-12.679,46.899
			l11.774,4.476c0,0,6.551-11.042,11.547-24.174c0,0-2.943,18.141-4.302,28.982c-1.359,10.841-8.151,20.151-15.396,27.849
			c-7.245,7.698-10.477,18.566-3.654,35.321c0,0,1.39-12.227,15.427-25.359c14.038-13.132,30.141-22.42,40.359-38.256
			C249.965,197.412,255.2,171.075,236.238,140.848z"/>
		<path style="fill:#717A00;" d="M184.105,246.981c-6.944,7.378-10.176,17.684-4.427,33.279
			c-0.424-12.781,1.071-20.036,8.672-31.411c5.633-8.43,12.709-20.742,14.558-31.065c1.495-8.346,0.649-16.935,0.536-25.395
			c-0.826,5.181-2.874,18.216-3.942,26.742C198.143,229.973,191.35,239.283,184.105,246.981z"/>
		<path style="fill:#717A00;" d="M204.503,167.947c9.161-10.712,20.752-18.419,33.049-24.927c-0.428-0.722-0.858-1.445-1.314-2.172
			c0,0-34.472,8.261-43.076,22.102c-8.604,13.842-13.132,35.125-12.68,46.899l6.585,2.503
			C186.413,196.707,194.815,179.274,204.503,167.947z"/>
		<path style="fill:#656B17;" d="M236.238,140.848c0,0-2.255,0.542-5.746,1.574c4.95,16.164,2.838,33.96-2.384,49.98
			c0.188,0.066,8.13-1.572,7.67,7.222c-0.856,16.343-17.483,29.923-46.439,58.138c-5.311,5.174-6.657,12.363-7.431,19.237
			c1.77-4.788,5.627-12.249,13.971-20.055c14.038-13.132,30.141-22.42,40.359-38.257C249.965,197.412,255.2,171.075,236.238,140.848
			z"/>
		<g>
			<path style="fill:#FFCC9D;" d="M180.52,205.549c0,0-2.755,3.743-2.076,8.776c0,0,9.962,4.581,12.906,4.354
				c0,0,3.031-2.813,2.874-7.86C194.224,210.82,190.067,206.456,180.52,205.549z"/>
			<path style="fill:#FFBA7A;" d="M187.694,207.094c-1.93-0.685-4.304-1.273-7.174-1.546c0,0-2.755,3.743-2.076,8.776
				c0,0,2.007,0.921,4.482,1.917C182.75,212.719,184.391,208.939,187.694,207.094z"/>
		</g>
		<path style="fill:#7A821C;" d="M255.2,143.508c0,0,30.783,10.84,43.699,29.208c0,0,4.755,9.057,4.076,15.623
			c0,0-14.717,1.877-31.472-7.212c0,0-1.358,28.777-9.962,39.165c0,0,7.698-25.16,2.491-48.028c-5.208-22.868-8.83-27.49-8.83-27.49
			"/>
		<path style="fill:#656B17;" d="M262.353,217.273c1.258-3.797,2.686-7.534,3.937-11.351c2.245-6.848,2.664-14.133,2.609-21.206
			c-0.026-3.299-0.186-5.186,0.62-8.385c0.123-0.852,1.642-4.353,1.807-5.197c-3.271-2.974-4.103-6.566-5.541-10.928
			c-2.099-6.367-6.736-14.321-10.585-16.154v0.722c0,0,3.623,4.621,8.83,27.49C268.158,190.386,264.182,209.935,262.353,217.273z"/>
		<g>
			<path style="fill:#D1711F;" d="M309.875,186.743c2.604-3,14.411-26.706,2.694-49.716c0,0-0.158-3.379-0.837-8.813l-10.71,0.747
				c0,0,0.679,5.737,5.07,8.196c0,0-5.797,16.251-5.589,35.188L309.875,186.743z"/>
			<path style="fill:#C9620A;" d="M304.184,164.782c1.627-8.919,1.698-19.405,6.756-27.199c0.451-0.696,0.99-1.189,1.571-1.516
				c-0.093-1.366-0.313-4.126-0.779-7.853l-10.71,0.747c0,0,0.679,5.737,5.07,8.196c0,0-5.797,16.251-5.589,35.188l1.975,3.033
				C302.942,171.84,303.54,168.308,304.184,164.782z"/>
		</g>
		<path style="fill:#FFCC9D;" d="M301.616,172.773c0,0-1.189-0.962-2.717-0.057c0,0-1.019,11.151,4.076,15.623
			c0,0,5.774,0.906,7.132-1.981C310.107,186.358,307.36,176.024,301.616,172.773z"/>
		<path style="fill:#1D262D;" d="M201.615,204.166c-1.038,0.532-2.414,4.908-0.707,4.758c1.707-0.15,15.579-5.336,25.54-20.449
			c9.96-15.113,6.959-38.024,4.044-46.051c0,0-4.528-2.327-7.882,2.549c0,0,5.549,22.911-0.395,38.407
			C216.272,198.874,201.615,204.166,201.615,204.166z"/>
		<path style="fill:#1D262D;" d="M254.804,143.055c0,0,0.646-0.684,1.698-0.685c3.396-0.002,10.536,7.423,13.455,15.119
			c5.489,14.471,6.866,30.984-0.916,42.408c0,0,4.556-11.707-2.916-35.616C260.673,146.839,254.804,143.055,254.804,143.055z"/>
		<path style="fill:#FFFFFF;" d="M235.227,141.103c0,0,0-2.066,1.86-2.802c0,0,5.774,6.453,14.264,7.811
			c0,0-1.868,1.868-3.057,3.736c-1.189,1.868-1.221,4.245-1.221,4.245S237.774,148.235,235.227,141.103z"/>
		<path style="fill:#FFFFFF;" d="M251.351,146.112c0,0,3.77-1.104,3.849-3.741l1.17,1.667c0,0,2.457,2.752-1.17,8.357
			C255.2,152.395,255.494,147.213,251.351,146.112z"/>
		<g>
			<path style="fill:#D1711F;" d="M255.135,143.105l0.566-3.391c0,0,9.235,0.454,10.48-3.338
				c1.034-3.149,6.695-24.793-12.106-31.585c-18.8-6.793-25.361,10.58-16.989,33.51c0,0,8.661,8.851,14.264,7.811
				C255.227,145.393,255.135,143.105,255.135,143.105z"/>
			<path style="fill:#C9620A;" d="M255.517,140.819c-3.393-0.09-6.732-0.693-9.916-2.069c-5.321-2.299-8.493-6.257-8.772-12.08
				c-0.296-6.199-0.529-12.536,0.042-18.755c-4.468,6-4.569,17.281,0.215,30.387c0,0,8.661,8.851,14.264,7.811
				c3.876-0.719,3.784-3.007,3.784-3.007L255.517,140.819z"/>
		</g>
		<path style="fill:#1D262D;" d="M231.313,119.451c0,0,1.162,7.59,4.172,13.888c0,0,0.748-9.789,2.929-11.208
			c2.181-1.42,6.227,1.582,8.182-6.016L231.313,119.451z"/>
		<g>
			<path style="fill:#7A821C;" d="M231.692,112.288c0,0-10.188,8.6-10.163,13.024c0.03,5.256,54.309-23.091,53.857-24.915
				c-0.452-1.824-7.71-3.03-20.424,0.077C254.962,100.474,243.231,103.393,231.692,112.288z"/>
			<path style="fill:#FFCC9D;" d="M254.189,95.75c-2.426,2.585-5.602,4.478-8.625,6.447c-5.022,3.271-10.765,6.506-16.623,8.051
				c-0.024,2.649,0.307,4.509,0.307,4.509c17.044-3.39,30.064-15.223,30.064-15.223S257.285,97.614,254.189,95.75z"/>
			<path style="fill:#656B17;" d="M255.446,96.546c-4.429-2.942-11.938-6.463-18.617-2.495c-6.772,4.023-7.899,11.737-7.888,16.53
				C238.018,107.986,247.967,103.079,255.446,96.546z"/>
		</g>
		<g>
			<path style="fill:#1D262D;" d="M257.59,122.518c-0.044,1.547-1.189,2.769-2.556,2.73c-1.367-0.039-2.439-1.325-2.395-2.872
				c0.044-1.547,1.189-2.769,2.556-2.73C256.562,119.685,257.634,120.971,257.59,122.518z"/>
			<path style="fill:#1D262D;" d="M267.66,117.2c-0.044,1.547-1.189,2.769-2.556,2.73c-1.367-0.039-2.44-1.325-2.395-2.872
				s1.189-2.769,2.556-2.73C266.632,114.367,267.704,115.653,267.66,117.2z"/>
			<g>
				<path style="fill:#474D00;" d="M327.003,124.149l-61.554-5.157c-0.908-0.12-1.592-0.883-1.613-1.799l0,0
					c-0.02-0.915,0.63-1.709,1.531-1.869l61.168-12.174L327.003,124.149z"/>
				<path style="fill:#33360C;" d="M266.246,116.71c-0.497,0.132-0.997,0.244-1.492,0.385c-0.325,0.093-0.625,0.125-0.912,0.13
					c0.035,0.901,0.71,1.65,1.607,1.768l61.554,5.157l-0.394-17.674C320.339,107.62,275.37,116.221,266.246,116.71z"/>
				<path style="fill:#656B17;" d="M333.186,113.585c0.135,6.038-2.24,10.988-5.305,11.057c-3.064,0.068-5.658-4.771-5.792-10.809
					c-0.135-6.038,2.24-10.988,5.305-11.057C330.458,102.708,333.051,107.547,333.186,113.585z"/>
				<path style="fill:#1D262D;" d="M328.205,123.361c-1.856,0.042-4.012-3.88-4.139-9.572c-0.127-5.693,1.852-9.707,3.708-9.748
					c1.856-0.041,4.012,3.88,4.139,9.573C332.041,119.306,330.062,123.32,328.205,123.361z"/>
			</g>
			<g>
				<path style="fill:#555C00;" d="M314.898,135.334l-59.525-10.959c-0.961-0.177-1.649-1.028-1.622-2.005l0,0
					c0.028-0.977,0.764-1.787,1.734-1.909l60.055-7.535L314.898,135.334z"/>
				<path style="fill:#33360C;" d="M254.097,121.362c-0.194,0.297-0.335,0.632-0.345,1.008c-0.028,0.977,0.66,1.828,1.621,2.005
					l59.525,10.959l0.534-18.646C294.968,117.89,274.514,120.33,254.097,121.362z"/>
				<path style="fill:#656B17;" d="M322.063,124.409c-0.185,6.443-2.985,11.591-6.255,11.497c-3.27-0.094-5.771-5.393-5.587-11.836
					c0.185-6.443,2.985-11.591,6.255-11.497C319.746,112.667,322.248,117.966,322.063,124.409z"/>
				<path style="fill:#1D262D;" d="M316.223,134.559c-1.981-0.057-4.066-4.354-3.892-10.429c0.174-6.076,2.501-10.246,4.482-10.189
					c1.981,0.057,4.066,4.354,3.892,10.429C320.532,130.446,318.204,134.616,316.223,134.559z"/>
			</g>
		</g>
	</g>
	<g>
		<path style="fill:#FFB947;" d="M0,464v36h273c0,0,8.701-54.518,15.851-67.259c7.149-12.741,32.781-34.755,9.965-32.248
			C276,403,0,420.5,0,420.5V464z"/>
		<path style="fill:#FFA538;" d="M273.621,496.241c0.423-11.935-0.69-23.914-3.708-35.149c-2.326-8.657-6.516-17.117-13.35-23.104
			c-6.572-5.757-15.199-8.829-23.719-10.191c-22.808-3.645-46.972-1.475-69.924-0.79c-28.514,0.851-57.032,1.977-85.564,1.728
			c-14.005-0.122-28.027-0.235-42.029-0.555c-7.156-0.164-14.291-0.533-21.434-0.975c-4.352-0.269-9.132-0.737-13.189-2.438
			c-0.246-0.103-0.475-0.219-0.703-0.336V500h273C273,500,273.221,498.615,273.621,496.241z"/>
	</g>
	<g>
		<defs>
			<rect id="SVGID_00000162332343863225506160000011521881687443669437_" width="500" height="500"/>
		</defs>
		<clipPath id="SVGID_00000119079670951002295650000008180310240422878875_">
			<use xlink:href="#SVGID_00000162332343863225506160000011521881687443669437_"  style="overflow:visible;"/>
		</clipPath>
		<g style="clip-path:url(#SVGID_00000119079670951002295650000008180310240422878875_);">
			<g>
				<path style="fill:#686A3A;" d="M43.052,358.599c2.067-0.1,3.626-2.285,0.687-21.684c-2.789-18.413-8.872-31.935-9.946-32.003
					c-1.048,0.005-0.659,13.576,2.275,32.317C39.087,356.989,40.89,358.901,43.052,358.599z"/>
				<path style="fill:#686A3A;" d="M30.353,370.835c2.247-0.817,3.749-3.937-3.643-26.053c-7.235-21.358-18.02-36.572-19.193-36.481
					c-1.161,0.187,3.241,16.761,10.629,38.937C25.676,370.209,27.926,371.9,30.353,370.835z"/>
				<path style="fill:#686A3A;" d="M81.266,341.491c-5.7-1.012-8.792-1.19-10.472-0.863c1.032-1.583,2.378-5.057,4.449-12.127
					c3.72-12.409,5.301-22.499,4.598-22.825c-0.7-0.319-6.061,7.843-9.783,20.081c-3.995,13.172-2.989,15.016-1.555,15.808
					c0.167,0.091,0.332,0.163,0.498,0.205c-0.003,0.008-0.006,0.015-0.01,0.023c-0.392-0.009-3.231,1.203-6.458,3.167
					c-1.3,0.811-2.593,1.653-3.882,2.509c-0.686,0.031-1.219,0.133-1.633,0.29c0.961-2.496,1.978-7.227,3.173-15.906
					c2.36-16.511,1.637-29.338,0.644-29.647c-0.976-0.272-5.454,10.875-7.75,27.291c-2.504,17.771-1.061,20.047,0.935,20.674
					c0.172,0.061,0.343,0.107,0.511,0.13c-3.01,2.141-5.99,4.417-8.94,6.84c-0.149,0.091-0.276,0.196-0.386,0.314
					c-9.627,7.959-18.929,17.498-27.909,29.016c1.3-2.45,0.587-8.777-7.888-28.605c-10.41-24.007-24.378-41.007-25.617-40.813
					c-1.235,0.273,5.894,19.651,16.429,45.002c10.655,25.921,13.271,27.343,15.872,25.646c0.203-0.119,0.398-0.259,0.581-0.424
					c-5.28,6.837-10.449,14.36-15.506,22.66c-0.158,0.159-0.296,0.338-0.421,0.529c1.332-3.307,0.279-11.383-9.162-34.841
					c-11.927-29.216-28.216-49.977-29.656-49.818c-1.428,0.238,7.035,23.757,18.972,55.003
					c12.165,32.166,15.191,33.786,18.274,31.564c0.435-0.287,0.842-0.644,1.177-1.149c-0.028,0.069-0.054,0.142-0.081,0.213
					c-5.239,8.717-10.358,18.275-15.356,28.761c1.257-4.786-0.598-15.355-12.534-43.928c-15.497-36.717-36.459-63.386-38.089-63.205
					c-1.55,0.253,10.604,31.113,25.668,71.252c15.554,41.37,19.32,42.554,22.99,39.128c0.302-0.275,0.591-0.577,0.858-0.925
					c-2.477,5.283-4.925,10.794-7.343,16.552c-3.649,8.764-6.068,16.98-5.525,17.51c0.566,0.539,3.843-6.784,7.423-15.566
					c1.752-4.31,3.523-8.472,5.309-12.52c0.266,5.286,5.003,12.701,28.206,23.871c26.692,11.93,50.005,7.498,50.36,5.173
					c0.359-2.593-19.982-14.422-45.598-26.587c-18.398-9.143-25.901-11.526-29.39-10.347c4.12-8.836,8.326-17.026,12.622-24.605
					c0.927,3.864,5.807,9.137,23.509,17.586c22.049,10.074,40.92,9.168,41.156,7.235c0.215-2.098-16.493-13.412-37.796-23.378
					c-12.878-6.234-19.338-8.483-22.747-8.473c3.929-6.504,7.93-12.538,12.004-18.129c0.293,3.189,3.877,7.883,19.521,17.539
					c18.549,11.254,34.672,13.774,34.968,12.095c0.254-1.739-13.562-14.09-31.537-24.932c-11.154-6.819-16.606-9.229-19.444-9.381
					c3.727-4.841,7.514-9.337,11.361-13.51c-0.466,3.014,0.774,6.525,18.654,13.391c16.916,6.385,30.612,6.269,30.7,4.785
					c0.087-1.55-12.517-9.984-29.029-16.216c-10.159-3.922-15.132-5.101-17.644-4.806c3.596-3.735,7.244-7.201,10.943-10.422
					c-0.279,2.431,1.321,5.325,15.654,11.651c14.343,6.278,25.966,7.19,26.09,5.92c0.111-1.301-10.399-9.326-24.443-15.401
					c-7.728-3.387-11.913-4.673-14.235-4.776c2.629-2.178,5.286-4.234,7.967-6.182c0.051,2.285,2.033,4.732,15.399,8.36
					c13.6,3.655,24.123,2.606,24.166,1.401c0.052-1.238-9.958-6.93-23.388-10.478c-5.705-1.551-9.374-2.259-11.749-2.395
					c0.948-0.64,1.9-1.269,2.854-1.883c3.035-1.878,5.631-3.288,6.138-3.687c-0.091,0.262-0.129,0.549-0.146,0.853
					c-0.105,1.964,0.757,3.885,12.137,5.888c10.657,1.854,18.882,0.249,18.918-0.689C99.891,347.011,91.892,343.32,81.266,341.491z"
					/>
			</g>
			<g>
				<g>
					<g>
						<path style="fill:#1D262D;" d="M127.132,442.184c-0.035,0.158-3.28,0.056-7.292,0.191
							c-37.551,1.936-78.911,17.648-130.647,58.162c-7.472,5.84-13.956,10.566-14.179,9.817c-0.208-0.73,5.976-6.656,13.499-12.446
							c52.114-39.86,93.737-54.821,131.411-56.224C123.955,441.576,127.177,441.992,127.132,442.184z"/>
					</g>
					<g>
						<path style="fill:#27391F;" d="M127.132,442.184c-0.035,0.158-3.28,0.056-7.292,0.191
							c-37.551,1.936-78.911,17.648-130.647,58.162c-7.472,5.84-13.956,10.566-14.179,9.817c-0.208-0.73,5.976-6.656,13.499-12.446
							c52.114-39.86,93.737-54.821,131.411-56.224C123.955,441.576,127.177,441.992,127.132,442.184z"/>
					</g>
				</g>
				<path style="fill:#1D262D;" d="M135.999,428.761c-10.015,9.444-10.058,11.543-9.209,12.943
					c0.897,1.455,2.314,1.654,12.343-7.984c9.396-8.918,15.785-16.887,15.337-17.519
					C154.022,415.577,145.313,419.994,135.999,428.761z"/>
				<path style="fill:#1D262D;" d="M119.412,423.569c-11.007,14.175-10.887,16.867-9.467,18.403
					c1.386,1.614,3.454,1.44,14.461-12.826c10.256-13.153,16.005-24.642,15.298-25.404
					C138.993,403.022,129.566,410.467,119.412,423.569z"/>
				<path style="fill:#1D262D;" d="M100.803,421.817c-7.203,18.646-6.59,21.202-4.564,22.015c1.844,0.94,4.282-0.181,11.376-18.474
					c6.734-17.363,8.178-32.119,7.28-32.713C113.983,392.128,107.575,404.097,100.803,421.817z"/>
				<path style="fill:#1D262D;" d="M80.277,421.594c-4.886,23.673-3.775,26.26-1.14,26.542c2.356,0.408,5.21-1.552,9.792-24.415
					c4.34-22.129,2.547-40.691,1.483-41.195C89.312,382.109,84.891,398.678,80.277,421.594z"/>
				<path style="fill:#1D262D;" d="M57.356,425.538c-3.641,27.789-2.078,30.323,1.022,30.143c2.787-0.035,5.928-2.647,9.033-29.21
					c2.902-26.005-0.766-47.699-1.938-48.147C64.266,377.948,60.819,398.305,57.356,425.538z"/>
				<path style="fill:#1D262D;" d="M31.269,432.206c-5.436,33.958-3.615,36.867,0.164,36.471c3.382-0.214,7.229-3.505,11.684-35.658
					c4.176-31.279,0.363-57.391-0.965-57.97C40.794,374.547,36.446,399.16,31.269,432.206z"/>
				<path style="fill:#1D262D;" d="M1.412,442.191c-7.07,43.628-4.392,46.527,0.496,45.38c4.448-0.991,9.187-5.504,14.282-46.187
					c4.808-39.563-0.123-73.124-1.627-73.776C13.093,367.056,8.297,399.875,1.412,442.191z"/>
				<path style="fill:#1D262D;" d="M120.243,457.998c-10.73-10.728-10.31-13.434-8.856-15.459c1.489-2.058,3.446-2.635,14.043,7.971
					c9.889,9.755,15.745,19.672,15.084,20.719C139.878,472.251,130.226,467.931,120.243,457.998z"/>
				<path style="fill:#1D262D;" d="M104.886,463.119c-9.927-13.476-9.192-16.33-7.477-18.279c1.754-1.968,3.856-2.309,13.619,10.872
					c9.166,12.252,14.295,24.44,13.552,25.515C123.841,482.267,114.21,475.697,104.886,463.119z"/>
				<path style="fill:#1D262D;" d="M88.207,470.86c-12.353-15.156-11.399-18.658-9.409-21.041
					c2.092-2.457,4.478-2.903,16.542,11.953c11.229,13.616,17.972,27.201,17.126,28.502C111.651,491.518,99.71,484.81,88.207,470.86
					z"/>
				<path style="fill:#1D262D;" d="M64.953,483.281c-11.087-20.417-9.405-24.388-6.836-26.752c2.698-2.426,5.36-2.431,16.194,17.318
					c10.207,18.343,16.054,35.927,14.969,37.311C88.189,512.468,75.452,502.266,64.953,483.281z"/>
				<path style="fill:#1D262D;" d="M41.89,499.117c-15.038-21.739-12.746-26.903-9.788-30.018
					c3.298-3.316,6.245-3.505,20.729,17.682c13.529,19.237,22.402,37.36,21.172,39.073C72.837,527.414,56.013,518.82,41.89,499.117z
					"/>
				<path style="fill:#1D262D;" d="M12.63,527.046C-5.637,500.45-1.688,493.372,2.199,489.375
					c4.581-4.403,7.873-4.472,25.209,21.459c16.179,23.29,27.947,43.665,26.347,45.737C52.289,558.411,29.859,550.667,12.63,527.046
					z"/>
				<path style="fill:#1D262D;" d="M137.901,447.985c-8.835-7.381-10.36-6.779-11.453-5.091c-1.067,1.651-1.274,3.747,7.604,11.143
					c8.326,6.907,16.259,9.603,16.757,8.808C151.317,462.034,146.211,454.854,137.901,447.985z"/>
			</g>
		</g>
		<g style="clip-path:url(#SVGID_00000119079670951002295650000008180310240422878875_);">
			<g>
				<path style="fill:#686A3A;" d="M485.615,387.599c-2.067-0.1-3.626-2.285-0.687-21.684c2.789-18.413,8.872-31.935,9.946-32.003
					c1.048,0.005,0.659,13.576-2.275,32.317C489.579,385.989,487.776,387.901,485.615,387.599z"/>
				<path style="fill:#686A3A;" d="M498.313,399.835c-2.247-0.817-3.749-3.937,3.643-26.053
					c7.235-21.358,18.02-36.572,19.193-36.481c1.161,0.187-3.241,16.761-10.629,38.937
					C502.991,399.209,500.741,400.9,498.313,399.835z"/>
				<path style="fill:#686A3A;" d="M447.4,370.491c5.7-1.012,8.792-1.19,10.472-0.863c-1.032-1.583-2.378-5.057-4.449-12.127
					c-3.72-12.409-5.301-22.499-4.598-22.825c0.7-0.319,6.061,7.843,9.783,20.081c3.995,13.172,2.989,15.016,1.555,15.808
					c-0.167,0.091-0.332,0.163-0.498,0.205c0.003,0.008,0.007,0.015,0.01,0.023c0.392-0.009,3.231,1.203,6.458,3.167
					c1.3,0.811,2.593,1.653,3.882,2.509c0.686,0.031,1.219,0.133,1.633,0.29c-0.961-2.496-1.978-7.227-3.173-15.906
					c-2.36-16.511-1.637-29.338-0.644-29.647c0.975-0.272,5.454,10.875,7.75,27.291c2.504,17.771,1.061,20.047-0.935,20.674
					c-0.172,0.061-0.343,0.107-0.511,0.13c3.01,2.141,5.99,4.417,8.94,6.84c0.149,0.091,0.276,0.196,0.386,0.314
					c9.627,7.959,18.929,17.498,27.909,29.016c-1.3-2.45-0.587-8.777,7.888-28.605c10.41-24.007,24.378-41.007,25.617-40.813
					c1.235,0.273-5.894,19.651-16.429,45.002c-10.655,25.921-13.271,27.343-15.872,25.646c-0.203-0.119-0.398-0.259-0.581-0.424
					c5.28,6.837,10.449,14.36,15.506,22.66c0.158,0.159,0.296,0.338,0.421,0.529c-1.332-3.307-0.279-11.383,9.162-34.841
					c11.927-29.216,28.216-49.977,29.656-49.818c1.428,0.238-7.035,23.757-18.972,55.003
					c-12.165,32.166-15.191,33.786-18.274,31.564c-0.435-0.287-0.842-0.644-1.177-1.149c0.028,0.069,0.054,0.142,0.081,0.213
					c5.239,8.717,10.358,18.275,15.356,28.761c-1.257-4.786,0.598-15.355,12.534-43.928c15.497-36.717,36.459-63.386,38.089-63.205
					c1.55,0.253-10.604,31.113-25.668,71.252c-15.555,41.37-19.32,42.554-22.99,39.128c-0.302-0.275-0.591-0.577-0.858-0.925
					c2.477,5.283,4.925,10.794,7.342,16.552c3.65,8.764,6.068,16.98,5.525,17.51c-0.566,0.539-3.843-6.784-7.422-15.566
					c-1.752-4.31-3.523-8.472-5.309-12.52c-0.266,5.286-5.004,12.701-28.206,23.871c-26.692,11.93-50.005,7.498-50.36,5.173
					c-0.359-2.593,19.982-14.422,45.597-26.587c18.398-9.143,25.901-11.526,29.391-10.347c-4.12-8.836-8.327-17.026-12.622-24.605
					c-0.927,3.864-5.807,9.137-23.509,17.586c-22.049,10.074-40.92,9.168-41.156,7.235c-0.215-2.098,16.493-13.412,37.796-23.378
					c12.877-6.234,19.338-8.483,22.747-8.473c-3.929-6.504-7.93-12.538-12.004-18.129c-0.293,3.189-3.877,7.883-19.521,17.539
					c-18.549,11.254-34.672,13.774-34.968,12.095c-0.254-1.739,13.562-14.09,31.537-24.932c11.154-6.819,16.607-9.229,19.444-9.381
					c-3.727-4.841-7.514-9.337-11.361-13.51c0.466,3.014-0.774,6.525-18.654,13.391c-16.916,6.385-30.612,6.269-30.701,4.785
					c-0.087-1.55,12.517-9.984,29.029-16.216c10.159-3.922,15.132-5.101,17.644-4.806c-3.596-3.735-7.243-7.201-10.943-10.422
					c0.279,2.431-1.321,5.325-15.654,11.651c-14.343,6.278-25.966,7.19-26.09,5.92c-0.111-1.301,10.398-9.326,24.443-15.401
					c7.728-3.387,11.913-4.673,14.235-4.776c-2.629-2.178-5.286-4.234-7.967-6.182c-0.051,2.285-2.033,4.732-15.399,8.36
					c-13.6,3.655-24.123,2.606-24.166,1.401c-0.053-1.238,9.958-6.93,23.388-10.478c5.705-1.551,9.374-2.259,11.749-2.395
					c-0.948-0.64-1.9-1.269-2.855-1.883c-3.035-1.878-5.631-3.288-6.138-3.687c0.091,0.262,0.129,0.549,0.146,0.853
					c0.105,1.964-0.758,3.885-12.137,5.888c-10.657,1.854-18.881,0.249-18.918-0.689C428.775,376.011,436.775,372.32,447.4,370.491z
					"/>
			</g>
			<g>
				<g>
					<g>
						<path style="fill:#1D262D;" d="M401.535,471.184c0.035,0.158,3.28,0.056,7.292,0.191
							c37.551,1.936,78.911,17.648,130.647,58.162c7.472,5.84,13.956,10.566,14.179,9.816c0.208-0.73-5.976-6.656-13.499-12.446
							c-52.114-39.86-93.737-54.821-131.411-56.224C404.712,470.576,401.489,470.992,401.535,471.184z"/>
					</g>
					<g>
						<path style="fill:#27391F;" d="M401.535,471.184c0.035,0.158,3.28,0.056,7.292,0.191
							c37.551,1.936,78.911,17.648,130.647,58.162c7.472,5.84,13.956,10.566,14.179,9.816c0.208-0.73-5.976-6.656-13.499-12.446
							c-52.114-39.86-93.737-54.821-131.411-56.224C404.712,470.576,401.489,470.992,401.535,471.184z"/>
					</g>
				</g>
				<path style="fill:#1D262D;" d="M392.667,457.761c10.015,9.444,10.058,11.543,9.208,12.943
					c-0.897,1.455-2.314,1.654-12.343-7.984c-9.396-8.918-15.785-16.887-15.337-17.519
					C374.645,444.577,383.354,448.994,392.667,457.761z"/>
				<path style="fill:#1D262D;" d="M409.254,452.569c11.007,14.175,10.887,16.867,9.466,18.403
					c-1.386,1.614-3.454,1.44-14.46-12.826c-10.256-13.153-16.005-24.642-15.298-25.404
					C389.674,432.022,399.101,439.467,409.254,452.569z"/>
				<path style="fill:#1D262D;" d="M427.864,450.817c7.203,18.646,6.59,21.202,4.564,22.015c-1.844,0.94-4.282-0.181-11.376-18.474
					c-6.734-17.363-8.178-32.119-7.28-32.713C414.684,421.128,421.092,433.097,427.864,450.817z"/>
				<path style="fill:#1D262D;" d="M448.39,450.594c4.886,23.673,3.775,26.26,1.14,26.542c-2.356,0.408-5.21-1.552-9.792-24.415
					c-4.34-22.129-2.547-40.691-1.483-41.195C439.355,411.109,443.775,427.678,448.39,450.594z"/>
				<path style="fill:#1D262D;" d="M471.31,454.538c3.641,27.789,2.078,30.323-1.022,30.143c-2.787-0.035-5.928-2.647-9.033-29.21
					c-2.902-26.005,0.766-47.699,1.938-48.147C464.4,406.948,467.848,427.305,471.31,454.538z"/>
				<path style="fill:#1D262D;" d="M497.397,461.206c5.436,33.958,3.616,36.867-0.164,36.471
					c-3.383-0.214-7.229-3.505-11.684-35.658c-4.176-31.279-0.363-57.391,0.965-57.97
					C487.872,403.547,492.22,428.16,497.397,461.206z"/>
				<path style="fill:#1D262D;" d="M527.254,471.191c7.07,43.628,4.392,46.527-0.496,45.38c-4.448-0.991-9.187-5.504-14.282-46.187
					c-4.807-39.563,0.123-73.124,1.627-73.776C515.574,396.056,520.37,428.875,527.254,471.191z"/>
				<path style="fill:#1D262D;" d="M408.423,486.998c10.73-10.728,10.31-13.434,8.856-15.459c-1.489-2.058-3.446-2.635-14.043,7.971
					c-9.889,9.755-15.745,19.672-15.084,20.719C388.788,501.251,398.441,496.931,408.423,486.998z"/>
				<path style="fill:#1D262D;" d="M423.78,492.119c9.927-13.476,9.192-16.33,7.477-18.279c-1.754-1.968-3.856-2.309-13.619,10.872
					c-9.165,12.252-14.295,24.44-13.552,25.515C404.825,511.267,414.457,504.697,423.78,492.119z"/>
				<path style="fill:#1D262D;" d="M440.46,499.86c12.353-15.156,11.399-18.658,9.409-21.041
					c-2.092-2.457-4.478-2.903-16.542,11.953c-11.229,13.616-17.972,27.201-17.126,28.502
					C417.015,520.518,428.956,513.81,440.46,499.86z"/>
				<path style="fill:#1D262D;" d="M463.714,512.281c11.087-20.417,9.405-24.388,6.836-26.752
					c-2.698-2.426-5.36-2.431-16.194,17.318c-10.207,18.343-16.054,35.927-14.969,37.311
					C440.477,541.468,453.214,531.266,463.714,512.281z"/>
				<path style="fill:#1D262D;" d="M486.777,528.117c15.038-21.739,12.746-26.903,9.788-30.018
					c-3.298-3.316-6.245-3.505-20.73,17.682c-13.529,19.237-22.402,37.36-21.172,39.073
					C455.83,556.414,472.654,547.82,486.777,528.117z"/>
				<path style="fill:#1D262D;" d="M516.037,556.046c18.267-26.596,14.318-33.674,10.431-37.671
					c-4.581-4.403-7.873-4.472-25.209,21.459c-16.179,23.29-27.947,43.665-26.346,45.737
					C476.377,587.411,498.808,579.667,516.037,556.046z"/>
				<path style="fill:#1D262D;" d="M390.765,476.985c8.835-7.381,10.361-6.779,11.453-5.091c1.067,1.651,1.274,3.747-7.604,11.143
					c-8.326,6.907-16.259,9.603-16.757,8.808C377.349,491.034,382.456,483.854,390.765,476.985z"/>
			</g>
		</g>
		<g style="clip-path:url(#SVGID_00000119079670951002295650000008180310240422878875_);">
			<path style="fill:#1D262D;" d="M160.88-4.333h-13.485c-0.275,3.051-0.275,8.024,2.617,13.311
				c4.666,8.538,12.944,12.292,13.58,13.325c0.637,1.033,0.828,1.196,0.827,0.107c-0.006-1.087,2.342-11.825-0.441-20.632
				C163.3-0.377,162.245-2.405,160.88-4.333z"/>
			<path style="fill:#1D262D;" d="M-3-4.333v33.463c1.043,1.927,2.38,4.032,4.489,6.343c3.605,3.948,10.034,7.631,10.709,9.115
				c0.673,1.484,0.979,0.823,0.863,0.325c-0.056-0.242-0.169-0.796-0.298-1.645c0.042-0.054,0.083-0.107,0.128-0.169
				c0.486-0.675,7.12-5.854,9.421-9.739c3.274-5.524,3.35-6.873,4.491-10.604c0.685-0.06-2.293,7.754,2.427,16.381
				c4.666,8.538,12.944,12.292,13.58,13.325c0.637,1.033,0.828,1.197,0.826,0.107c-0.006-1.087,2.342-11.825-0.44-20.632
				c-1.448-4.594-4.5-8.649-8.957-12.278c2.885,1.416,5.999,3.287,11.254,4.281c2.633,0.497,5.794,0.516,8.473,0.51
				c0.041,0.316,0.066,0.592,0.062,0.82c-0.032,1.725,0.353,4.049,0.31,4.597c-0.043,0.546,0.3,0.334,0.786-0.341
				c0.278-0.386,2.562-2.242,4.899-4.487c0.834,0.337,0.747-0.144,0.452-0.439c1.601-1.571,3.168-3.291,4.07-4.813
				c0.079-0.132,0.147-0.251,0.222-0.379c1.268,2.216,2.293,3.717,2.457,4.094c0.438,0.997,0.547,0.771,0.712-0.431
				c0.051-0.37,0.663-1.271,1.507-2.622c0.418,1.632,1.057,3.355,2.02,5.114c4.666,8.538,12.944,12.292,13.58,13.325
				c0.636,1.033,0.828,1.196,0.826,0.107c-0.006-1.087,2.342-11.825-0.44-20.632c-1.448-4.595-4.5-8.649-8.957-12.278
				c2.885,1.415,5.999,3.286,11.254,4.281c4.021,0.76,9.268,0.404,12.151,0.545c-0.193,8.145,3.225,14.533,3.127,15.604
				c-0.111,1.208-0.057,1.454,0.595,0.581c0.426-0.574,4.172-3.875,7.557-8.546c0.09,0.151,0.156,0.268,0.187,0.34
				c0.438,0.997,0.547,0.771,0.712-0.431c0.163-1.186,6.065-7.802,7.013-17.295c0.84,1.306,1.867,2.688,3.202,4.15
				c3.606,3.947,10.035,7.631,10.709,9.115c0.673,1.484,0.979,0.823,0.864,0.325c-0.057-0.241-0.17-0.796-0.298-1.645
				c0.041-0.053,0.083-0.107,0.128-0.169c0.486-0.675,7.12-5.854,9.421-9.739c2.225-3.753,2.973-5.579,3.582-7.535H-3z"/>
			<path style="fill:#1D262D;" d="M168.894-4.333h-7.005c3.593,1.751,6.52,2.709,6.998,2.981c0.949,0.535,0.9,0.288,0.311-0.772
				C169.048-2.394,168.986-3.183,168.894-4.333z"/>
			<path style="fill:#1D262D;" d="M189.314-4.333h-9.395c1.887,2.601,3.965,4.054,4.684,5c1.043,1.375,2.782,2.964,3.086,3.421
				c0.303,0.456,0.442,0.078,0.406-0.754C188.072,2.805,188.878-0.701,189.314-4.333z"/>
			<path style="fill:#1D262D;" d="M323.178-4.333c-3.327,7.012-3.057,13.811-3.592,14.704c-0.623,1.041-0.679,1.286,0.286,0.782
				c0.962-0.506,11.573-3.375,18.105-9.905c1.604-1.602,2.931-3.472,4.015-5.582H323.178z"/>
			<path style="fill:#1D262D;" d="M504.333-4.333h-159.11c0.2,1.214,0.481,2.51,0.909,3.932c1.541,5.119,5.743,11.222,5.708,12.852
				c-0.035,1.629,0.526,1.165,0.638,0.668c0.053-0.243,0.191-0.791,0.443-1.612c0.061-0.03,0.121-0.061,0.188-0.097
				c0.73-0.398,8.952-2.196,12.708-4.701c5.342-3.562,5.995-4.745,8.638-7.616c0.643,0.243-5.422,5.998-4.903,15.817
				c0.512,9.716,6.348,16.683,6.475,17.89c0.126,1.207,0.229,1.437,0.698,0.453c0.466-0.982,7.229-9.646,8.533-18.79
				c0.684-4.768-0.312-9.744-2.758-14.945c1.986,2.525,3.985,5.559,8.291,8.73c2.158,1.588,5,2.974,7.418,4.127
				c-0.1,0.302-0.198,0.562-0.3,0.766c-0.775,1.542-1.434,3.803-1.71,4.278c-0.276,0.473,0.125,0.431,0.856,0.033
				c0.418-0.228,3.28-0.912,6.358-1.925c0.606,0.665,0.735,0.193,0.599-0.199c2.123-0.724,4.279-1.595,5.75-2.577
				c0.129-0.085,0.242-0.163,0.365-0.245c0.183,2.546,0.459,4.344,0.442,4.754c-0.036,1.089,0.159,0.932,0.829-0.08
				c0.207-0.312,1.147-0.859,2.495-1.711c-0.329,1.652-0.499,3.482-0.394,5.484c0.51,9.716,6.348,16.684,6.475,17.89
				c0.126,1.207,0.229,1.437,0.698,0.454c0.464-0.982,7.229-9.646,8.534-18.789c0.682-4.769-0.313-9.745-2.759-14.945
				c1.987,2.525,3.985,5.559,8.292,8.731c3.295,2.425,8.18,4.375,10.718,5.75c-3.7,7.259-3.385,14.496-3.936,15.42
				c-0.623,1.041-0.68,1.286,0.286,0.781c0.632-0.333,5.436-1.688,10.512-4.433c0.016,0.175,0.023,0.309,0.021,0.387
				c-0.036,1.089,0.159,0.931,0.829-0.08c0.661-0.999,8.845-4.408,13.809-12.555c0.191,1.541,0.52,3.231,1.089,5.127
				c1.542,5.119,5.743,11.222,5.709,12.852c-0.037,1.628,0.526,1.165,0.637,0.667c0.053-0.242,0.193-0.79,0.443-1.612
				c0.06-0.03,0.121-0.06,0.188-0.097c0.731-0.398,8.953-2.195,12.709-4.701c5.343-3.563,5.995-4.746,8.639-7.616
				c0.642,0.242-5.424,5.997-4.904,15.817c0.51,9.716,6.347,16.683,6.475,17.89c0.127,1.207,0.228,1.437,0.698,0.454
				c0.303-0.64,3.273-4.544,5.671-9.709V-4.333z"/>
		</g>
	</g>
</g>
<g id="DESIGNED_BY_FREEPIK">
	<g>
		<g id="XMLID_319_">
			<g id="XMLID_338_">
				<path id="XMLID_346_" style="fill:#1D262D;" d="M260.104,470.454c-0.432,0.443-0.803,0.931-1.108,1.453l-0.465-0.241
					c-0.067-0.298-0.349-0.503-0.659-0.466c-0.331,0.039-0.568,0.339-0.529,0.67c0.039,0.331,0.339,0.568,0.67,0.529
					c0.066-0.008,0.127-0.026,0.184-0.052l0.451,0.234c-0.251,0.554-0.433,1.139-0.539,1.744l0.746,0.132
					c0.23-1.306,0.85-2.507,1.792-3.473L260.104,470.454z"/>
				<path id="XMLID_345_" style="fill:#1D262D;" d="M265.592,468.152c-0.171,0-0.341,0.006-0.51,0.017l-0.074-0.626
					c0.188-0.149,0.296-0.389,0.266-0.645c-0.046-0.393-0.402-0.674-0.795-0.628c-0.393,0.046-0.674,0.402-0.628,0.795
					c0.03,0.254,0.189,0.461,0.404,0.564l0.074,0.624c-0.714,0.116-1.403,0.332-2.06,0.646l0.327,0.684
					c0.934-0.447,1.942-0.673,2.995-0.673c0.496,0,0.993,0.053,1.475,0.158l0.161-0.741
					C266.692,468.211,266.142,468.152,265.592,468.152z"/>
				<path id="XMLID_344_" style="fill:#1D262D;" d="M272.194,470.699c0.331-0.04,0.566-0.341,0.526-0.672
					c-0.04-0.331-0.341-0.566-0.672-0.526c-0.309,0.038-0.535,0.304-0.53,0.609l-0.416,0.363c-0.418-0.43-0.889-0.813-1.408-1.139
					l-0.404,0.641c1.134,0.715,2.021,1.726,2.563,2.925l0.69-0.313c-0.251-0.554-0.568-1.072-0.942-1.545l0.402-0.351
					C272.065,470.704,272.129,470.707,272.194,470.699z"/>
				<path id="XMLID_343_" style="fill:#1D262D;" d="M265.044,478.361c-0.386,0.023-0.775,0.035-1.157,0.035
					c-0.88,0-1.733-0.061-2.478-0.179c-0.39-0.062-0.846-0.155-1.27-0.292c1.046,1.861,3.069,3.125,5.388,3.125
					c2.855,0,5.262-1.916,5.95-4.504c-0.682,0.449-1.505,0.825-2.459,1.123C267.839,478.036,266.463,478.275,265.044,478.361z"/>
				<path id="XMLID_339_" style="fill:#1D262D;" d="M265.592,469.668c-3.352,0-6.08,2.666-6.08,5.943
					c0,0.426,0.046,0.849,0.137,1.261c0.673,0.483,2.706,0.89,5.348,0.731c2.879-0.173,5.297-0.957,6.672-2.159
					c-0.006-0.195-0.021-0.39-0.045-0.582C271.244,471.902,268.65,469.668,265.592,469.668z M263.432,476.183
					c-1.02,0-1.85-0.83-1.85-1.85c0-1.02,0.83-1.85,1.85-1.85c1.02,0,1.85,0.83,1.85,1.85
					C265.282,475.353,264.452,476.183,263.432,476.183z M268.17,475.275c-0.75,0-1.36-0.61-1.36-1.36s0.61-1.361,1.36-1.361
					c0.75,0,1.361,0.61,1.361,1.361S268.92,475.275,268.17,475.275z"/>
			</g>
			<path id="XMLID_336_" style="fill:#1D262D;" d="M281.595,471.535c-0.295-0.116-0.805-0.309-1.382-0.237
				c-0.551,0.069-0.844,0.341-0.844,1.007v0.866h2.228v1.717h-2.228v5.455h-1.932v-5.455h-1.34v-1.717h1.34v-0.888
				c0-1.68,0.896-2.783,2.568-2.783c0.643,0,1.157,0.122,1.59,0.308L281.595,471.535z"/>
			<path id="XMLID_334_" style="fill:#1D262D;" d="M286.298,474.867c-0.177-0.03-0.358-0.046-0.526-0.046
				c-0.895,0-1.51,0.548-1.51,1.614v3.908h-1.932v-7.172h1.873v0.785c0.451-0.673,1.14-0.977,2.021-0.977
				c0.414,0,0.848,0.128,1.094,0.337L286.298,474.867z"/>
			<path id="XMLID_331_" style="fill:#1D262D;" d="M293.965,476.746c0,0.222-0.015,0.489-0.037,0.651h-5.085
				c0.207,1.036,0.933,1.488,1.843,1.488c0.622,0,1.295-0.252,1.813-0.688l1.133,1.243c-0.814,0.748-1.85,1.088-3.057,1.088
				c-2.198,0-3.723-1.495-3.723-3.753c0-2.258,1.48-3.797,3.627-3.797C292.544,472.978,293.958,474.51,293.965,476.746z
				 M288.851,476.079h3.175c-0.177-0.918-0.733-1.436-1.562-1.436C289.554,474.644,289.021,475.191,288.851,476.079z"/>
			<path id="XMLID_328_" style="fill:#1D262D;" d="M301.618,476.746c0,0.222-0.015,0.489-0.037,0.651h-5.085
				c0.207,1.036,0.932,1.488,1.843,1.488c0.622,0,1.295-0.252,1.814-0.688l1.132,1.243c-0.814,0.748-1.85,1.088-3.057,1.088
				c-2.198,0-3.723-1.495-3.723-3.753c0-2.258,1.48-3.797,3.627-3.797C300.197,472.978,301.611,474.51,301.618,476.746z
				 M296.504,476.079h3.175c-0.178-0.918-0.733-1.436-1.562-1.436C297.207,474.644,296.674,475.191,296.504,476.079z"/>
			<path id="XMLID_325_" style="fill:#1D262D;" d="M309.964,476.753c0,2.154-1.495,3.775-3.471,3.775
				c-0.962,0-1.643-0.378-2.109-0.933v3.708h-1.924v-10.133h1.887v0.792c0.466-0.585,1.155-0.984,2.139-0.984
				C308.469,472.978,309.964,474.599,309.964,476.753z M304.287,476.753c0,1.132,0.747,1.976,1.843,1.976
				c1.14,0,1.85-0.881,1.85-1.976c0-1.095-0.711-1.976-1.85-1.976C305.035,474.777,304.287,475.621,304.287,476.753z"/>
			<path id="XMLID_322_" style="fill:#1D262D;" d="M313.067,470.824c0,0.696-0.54,1.229-1.236,1.229
				c-0.696,0-1.229-0.533-1.229-1.229c0-0.696,0.533-1.243,1.229-1.243C312.527,469.581,313.067,470.129,313.067,470.824z
				 M312.809,480.343h-1.932v-7.172h1.932V480.343z"/>
			<path id="XMLID_320_" style="fill:#1D262D;" d="M316.032,475.724l2.702-2.554h2.368l-3.479,3.375l3.501,3.797h-2.376
				l-2.716-2.901v2.901H314.1v-10.658h1.932V475.724z"/>
		</g>
		<g>
			<path style="fill:#1D262D;" d="M184.412,480.278v-1.055c-0.527,0.718-1.391,1.23-2.387,1.23c-1.846,0-3.149-1.406-3.149-3.706
				c0-2.256,1.289-3.721,3.149-3.721c0.952,0,1.816,0.469,2.387,1.245v-3.765h1.099v9.77H184.412z M184.412,478.359v-3.208
				c-0.395-0.615-1.245-1.143-2.124-1.143c-1.421,0-2.27,1.172-2.27,2.739c0,1.567,0.85,2.724,2.27,2.724
				C183.168,479.472,184.017,478.974,184.412,478.359z"/>
			<path style="fill:#1D262D;" d="M186.932,476.733c0-2.051,1.465-3.706,3.486-3.706c2.139,0,3.398,1.67,3.398,3.794v0.279h-5.727
				c0.088,1.333,1.025,2.446,2.549,2.446c0.805,0,1.626-0.322,2.182-0.894l0.527,0.718c-0.703,0.703-1.655,1.084-2.812,1.084
				C188.44,480.453,186.932,478.945,186.932,476.733z M190.403,473.935c-1.509,0-2.256,1.274-2.314,2.358h4.643
				C192.718,475.239,192.015,473.935,190.403,473.935z"/>
			<path style="fill:#1D262D;" d="M194.607,479.34l0.571-0.791c0.469,0.542,1.362,1.011,2.329,1.011c1.084,0,1.67-0.513,1.67-1.216
				c0-1.714-4.38-0.659-4.38-3.281c0-1.098,0.952-2.036,2.636-2.036c1.201,0,2.051,0.454,2.622,1.026l-0.513,0.762
				c-0.424-0.513-1.201-0.894-2.109-0.894c-0.967,0-1.567,0.483-1.567,1.113c0,1.552,4.38,0.527,4.38,3.281
				c0,1.187-0.952,2.138-2.783,2.138C196.306,480.453,195.325,480.102,194.607,479.34z"/>
			<path style="fill:#1D262D;" d="M201.477,471.46c0-0.41,0.337-0.747,0.732-0.747c0.41,0,0.747,0.337,0.747,0.747
				c0,0.41-0.337,0.732-0.747,0.732C201.814,472.192,201.477,471.87,201.477,471.46z M201.667,480.278v-7.075h1.099v7.075H201.667z"
				/>
			<path style="fill:#1D262D;" d="M204.582,482.094l0.556-0.82c0.586,0.703,1.289,0.967,2.3,0.967c1.172,0,2.27-0.571,2.27-2.124
				v-1.011c-0.513,0.718-1.377,1.26-2.373,1.26c-1.845,0-3.149-1.377-3.149-3.662c0-2.27,1.289-3.677,3.149-3.677
				c0.952,0,1.802,0.469,2.373,1.245v-1.069h1.098v6.87c0,2.344-1.641,3.076-3.369,3.076
				C206.237,483.149,205.417,482.914,204.582,482.094z M209.709,478.242v-3.091c-0.381-0.615-1.23-1.143-2.109-1.143
				c-1.421,0-2.27,1.128-2.27,2.695c0,1.553,0.849,2.695,2.27,2.695C208.478,479.399,209.328,478.857,209.709,478.242z"/>
			<path style="fill:#1D262D;" d="M217.413,480.278v-4.629c0-1.245-0.63-1.641-1.582-1.641c-0.865,0-1.685,0.527-2.095,1.099v5.17
				h-1.099v-7.075h1.099v1.025c0.498-0.586,1.465-1.201,2.519-1.201c1.48,0,2.256,0.747,2.256,2.285v4.966H217.413z"/>
			<path style="fill:#1D262D;" d="M219.932,476.733c0-2.051,1.465-3.706,3.486-3.706c2.139,0,3.398,1.67,3.398,3.794v0.279h-5.727
				c0.088,1.333,1.025,2.446,2.549,2.446c0.806,0,1.626-0.322,2.183-0.894l0.527,0.718c-0.703,0.703-1.655,1.084-2.812,1.084
				C221.441,480.453,219.932,478.945,219.932,476.733z M223.404,473.935c-1.509,0-2.256,1.274-2.314,2.358h4.643
				C225.718,475.239,225.015,473.935,223.404,473.935z"/>
			<path style="fill:#1D262D;" d="M233.35,480.278v-1.055c-0.527,0.718-1.392,1.23-2.388,1.23c-1.846,0-3.149-1.406-3.149-3.706
				c0-2.256,1.289-3.721,3.149-3.721c0.952,0,1.817,0.469,2.388,1.245v-3.765h1.098v9.77H233.35z M233.35,478.359v-3.208
				c-0.396-0.615-1.245-1.143-2.124-1.143c-1.421,0-2.27,1.172-2.27,2.739c0,1.567,0.849,2.724,2.27,2.724
				C232.105,479.472,232.954,478.974,233.35,478.359z"/>
			<path style="fill:#1D262D;" d="M239.692,480.278v-9.77h1.098v3.765c0.572-0.776,1.421-1.245,2.388-1.245
				c1.845,0,3.149,1.465,3.149,3.721c0,2.299-1.304,3.706-3.149,3.706c-0.996,0-1.86-0.513-2.388-1.23v1.055H239.692z
				 M242.9,479.472c1.436,0,2.285-1.157,2.285-2.724c0-1.568-0.85-2.739-2.285-2.739c-0.864,0-1.728,0.527-2.109,1.143v3.208
				C241.171,478.974,242.036,479.472,242.9,479.472z"/>
			<path style="fill:#1D262D;" d="M247.528,482.05c0.161,0.073,0.425,0.117,0.601,0.117c0.483,0,0.805-0.161,1.055-0.747
				l0.469-1.069l-2.959-7.148h1.187l2.358,5.8l2.344-5.8h1.201l-3.545,8.51c-0.425,1.025-1.143,1.421-2.08,1.435
				c-0.234,0-0.601-0.044-0.806-0.103L247.528,482.05z"/>
		</g>
	</g>
</g>
</svg>
