<svg id="visual" viewBox="0 0 900 600" width="900" height="600" xmlns="http://www.w3.org/2000/svg" xmlns:xlink="http://www.w3.org/1999/xlink" version="1.1"><rect x="0" y="0" width="900" height="600" fill="#ca6d22"></rect><path d="M0 382L21.5 380.8C43 379.7 86 377.3 128.8 392.2C171.7 407 214.3 439 257.2 458.3C300 477.7 343 484.3 385.8 487.5C428.7 490.7 471.3 490.3 514.2 492.8C557 495.3 600 500.7 642.8 503C685.7 505.3 728.3 504.7 771.2 497.3C814 490 857 476 878.5 469L900 462L900 601L878.5 601C857 601 814 601 771.2 601C728.3 601 685.7 601 642.8 601C600 601 557 601 514.2 601C471.3 601 428.7 601 385.8 601C343 601 300 601 257.2 601C214.3 601 171.7 601 128.8 601C86 601 43 601 21.5 601L0 601Z" fill="#435064" stroke-linecap="round" stroke-linejoin="miter"></path></svg>